<svg width="635" height="643" viewBox="0 0 635 643" fill="none" xmlns="http://www.w3.org/2000/svg">
<path opacity="0.5" d="M550.427 337.036L341.895 189.524L546.685 451.999L542.944 549.616L319.107 196.802L493.285 669H366.758L311.488 198.503L227.307 666.279L87.8547 664.578L296.216 193.095L87.8547 400.3L85.1337 335.336L284.448 181.939L85.5078 255.44L70.4062 215.237L277.951 166.939L66.0186 153.198V117.859L278.394 150.715L23.4007 61.398L0 -13.3278L285.638 136.09L51.189 -182.711L89.8954 -241.178L297.985 125.58L217.171 -293.626L283.087 -299L313.563 120.954L445.328 -296.279L515.054 -299L329.617 123.097L581.922 -103.529L611.173 -84.0401L343.46 131.566L611.173 7.59003L619.949 41.3646L352.643 144.933L619.949 116.941L634.54 138.845L355.568 160.885L569.338 180.306L559.746 218.332L351.793 176.667L534.577 284.827L550.427 337.036Z" fill="url(#paint0_radial)" fill-opacity="0.6"/>
<defs>
<radialGradient id="paint0_radial" cx="0" cy="0" r="1" gradientUnits="userSpaceOnUse" gradientTransform="translate(317.278 185) scale(409.22)">
<stop stop-color="#C5DCFE"/>
<stop offset="1" stop-color="#C5DCFE" stop-opacity="0"/>
</radialGradient>
</defs>
</svg>
