<svg width="33" height="33" viewBox="0 0 33 33" fill="none" xmlns="http://www.w3.org/2000/svg">
<g filter="url(#filter0_ii)">
<rect width="33" height="33" rx="11" fill="#5BC1FF"/>
</g>
<g filter="url(#filter1_i)">
<path d="M18.5513 21.6941C18.412 21.7638 18.1508 21.8247 17.7677 21.8769C17.4021 21.9118 17.0451 21.9292 16.6969 21.9292C15.983 21.9292 15.4433 21.816 15.0776 21.5896C14.712 21.3459 14.5291 20.8409 14.5291 20.0748V17.2019H10.5854C10.4635 17.0104 10.359 16.7579 10.272 16.4445C10.2023 16.1311 10.1675 15.8176 10.1675 15.5042C10.1675 14.8774 10.3068 14.4247 10.5854 14.1461C10.864 13.8501 11.2383 13.7021 11.7084 13.7021H14.5291V9.31435C14.7033 9.26211 14.9644 9.20988 15.3127 9.15764C15.6783 9.088 16.0353 9.05317 16.3835 9.05317C17.08 9.05317 17.611 9.17506 17.9767 9.41882C18.3597 9.66259 18.5513 10.1762 18.5513 10.9598V13.7021H22.4167C22.5037 13.9111 22.5908 14.1722 22.6778 14.4856C22.7823 14.7816 22.8346 15.0951 22.8346 15.4259C22.8346 16.0353 22.6953 16.488 22.4167 16.784C22.1381 17.0626 21.7724 17.2019 21.3197 17.2019H18.5513V21.6941Z" fill="#F9F9FA"/>
</g>
<defs>
<filter id="filter0_ii" x="0" y="-1.45098" width="33" height="35.902" filterUnits="userSpaceOnUse" color-interpolation-filters="sRGB">
<feFlood flood-opacity="0" result="BackgroundImageFix"/>
<feBlend mode="normal" in="SourceGraphic" in2="BackgroundImageFix" result="shape"/>
<feColorMatrix in="SourceAlpha" type="matrix" values="0 0 0 0 0 0 0 0 0 0 0 0 0 0 0 0 0 0 127 0" result="hardAlpha"/>
<feOffset dy="-1.45098"/>
<feGaussianBlur stdDeviation="1.81373"/>
<feComposite in2="hardAlpha" operator="arithmetic" k2="-1" k3="1"/>
<feColorMatrix type="matrix" values="0 0 0 0 0.11033 0 0 0 0 0.443387 0 0 0 0 0.645833 0 0 0 0.39 0"/>
<feBlend mode="normal" in2="shape" result="effect1_innerShadow"/>
<feColorMatrix in="SourceAlpha" type="matrix" values="0 0 0 0 0 0 0 0 0 0 0 0 0 0 0 0 0 0 127 0" result="hardAlpha"/>
<feOffset dy="1.45098"/>
<feGaussianBlur stdDeviation="1.45098"/>
<feComposite in2="hardAlpha" operator="arithmetic" k2="-1" k3="1"/>
<feColorMatrix type="matrix" values="0 0 0 0 0.683333 0 0 0 0 0.880285 0 0 0 0 1 0 0 0 1 0"/>
<feBlend mode="normal" in2="effect1_innerShadow" result="effect2_innerShadow"/>
</filter>
<filter id="filter1_i" x="10.1675" y="9.05318" width="13.0298" height="13.2387" filterUnits="userSpaceOnUse" color-interpolation-filters="sRGB">
<feFlood flood-opacity="0" result="BackgroundImageFix"/>
<feBlend mode="normal" in="SourceGraphic" in2="BackgroundImageFix" result="shape"/>
<feColorMatrix in="SourceAlpha" type="matrix" values="0 0 0 0 0 0 0 0 0 0 0 0 0 0 0 0 0 0 127 0" result="hardAlpha"/>
<feOffset dx="0.362745" dy="0.362745"/>
<feGaussianBlur stdDeviation="0.362745"/>
<feComposite in2="hardAlpha" operator="arithmetic" k2="-1" k3="1"/>
<feColorMatrix type="matrix" values="0 0 0 0 0 0 0 0 0 0 0 0 0 0 0 0 0 0 0.16 0"/>
<feBlend mode="normal" in2="shape" result="effect1_innerShadow"/>
</filter>
</defs>
</svg>
