<svg width="59" height="59" viewBox="0 0 59 59" fill="none" xmlns="http://www.w3.org/2000/svg">
<g filter="url(#filter0_ii)">
<rect width="59" height="59" rx="11" fill="#FFB132"/>
</g>
<g filter="url(#filter1_i)">
<path d="M39.9297 25.6802H34.8754C34.2613 25.6802 33.9621 24.9221 34.3873 24.4867L41.1894 17.5191C42.8584 15.8094 41.6775 12.9062 39.3156 12.9062H25.9476C24.5305 12.9062 23.2393 13.7288 22.6252 15.0352L16.9096 27.164C15.9018 29.3091 17.4292 31.793 19.7438 31.793H24.2155C24.9241 31.793 25.428 32.5188 25.2075 33.2123L21.6647 43.954C21.1451 45.5185 22.9874 46.7765 24.1998 45.6798L41.5673 30.0995C43.2678 28.5672 42.2129 25.6802 39.9297 25.6802Z" fill="white"/>
</g>
<defs>
<filter id="filter0_ii" x="0" y="-1.45098" width="59" height="61.902" filterUnits="userSpaceOnUse" color-interpolation-filters="sRGB">
<feFlood flood-opacity="0" result="BackgroundImageFix"/>
<feBlend mode="normal" in="SourceGraphic" in2="BackgroundImageFix" result="shape"/>
<feColorMatrix in="SourceAlpha" type="matrix" values="0 0 0 0 0 0 0 0 0 0 0 0 0 0 0 0 0 0 127 0" result="hardAlpha"/>
<feOffset dy="-1.45098"/>
<feGaussianBlur stdDeviation="1.81373"/>
<feComposite in2="hardAlpha" operator="arithmetic" k2="-1" k3="1"/>
<feColorMatrix type="matrix" values="0 0 0 0 0.831373 0 0 0 0 0.45098 0 0 0 0 0 0 0 0 0.39 0"/>
<feBlend mode="normal" in2="shape" result="effect1_innerShadow"/>
<feColorMatrix in="SourceAlpha" type="matrix" values="0 0 0 0 0 0 0 0 0 0 0 0 0 0 0 0 0 0 127 0" result="hardAlpha"/>
<feOffset dy="1.45098"/>
<feGaussianBlur stdDeviation="1.45098"/>
<feComposite in2="hardAlpha" operator="arithmetic" k2="-1" k3="1"/>
<feColorMatrix type="matrix" values="0 0 0 0 1 0 0 0 0 0.882353 0 0 0 0 0.694118 0 0 0 1 0"/>
<feBlend mode="normal" in2="effect1_innerShadow" result="effect2_innerShadow"/>
</filter>
<filter id="filter1_i" x="16.5938" y="12.9062" width="26.1725" height="33.5475" filterUnits="userSpaceOnUse" color-interpolation-filters="sRGB">
<feFlood flood-opacity="0" result="BackgroundImageFix"/>
<feBlend mode="normal" in="SourceGraphic" in2="BackgroundImageFix" result="shape"/>
<feColorMatrix in="SourceAlpha" type="matrix" values="0 0 0 0 0 0 0 0 0 0 0 0 0 0 0 0 0 0 127 0" result="hardAlpha"/>
<feOffset dx="0.36" dy="0.36"/>
<feGaussianBlur stdDeviation="0.365"/>
<feComposite in2="hardAlpha" operator="arithmetic" k2="-1" k3="1"/>
<feColorMatrix type="matrix" values="0 0 0 0 0 0 0 0 0 0 0 0 0 0 0 0 0 0 0.16 0"/>
<feBlend mode="normal" in2="shape" result="effect1_innerShadow"/>
</filter>
</defs>
</svg>
