<svg width="139" height="154" viewBox="0 0 139 154" fill="none" xmlns="http://www.w3.org/2000/svg">
<path d="M0 40.0771V118.483L69.4359 153.212V74.8066L0 40.0771Z" fill="#12A8C4"/>
<path d="M0 40.0771C0 40.0771 5.72996 63.2704 7.23384 65.0756C8.73771 66.8807 49.352 89.7437 52.661 88.8411C55.97 87.9385 65.0283 76.1278 65.0283 76.1278L0 40.0771Z" fill="#007AB8"/>
<path d="M0 40.0771C0 40.0771 6.63253 61.164 7.83635 62.3679C9.04018 63.5717 49.9533 84.9308 51.7584 85.2309C53.5635 85.5321 68.3046 74.1 68.3046 74.1L0 40.0771Z" fill="#51E0FA"/>
<path d="M138.871 40.0965L69.4359 74.8066L0 40.0772L69.4359 5.3671L138.871 40.0965Z" fill="#BE8F27"/>
<path d="M138.868 40.1026L69.4335 74.8102L0 40.0772L69.4347 5.36951L138.868 40.1026Z" fill="#9EF2F9"/>
<path d="M138.902 40.0965V118.502L69.4673 153.212V74.8066L138.902 40.0965Z" fill="#006496"/>
<path d="M69.9742 75.9088C69.9742 75.9088 81.8407 88.8423 84.2483 89.1424C86.6548 89.4436 129.373 67.7833 131.178 65.3768C132.983 62.9704 137.796 41.6113 137.796 41.6113L69.9742 75.9088Z" fill="#004182"/>
<path d="M138.7 40.3784C138.7 40.3784 132.067 61.4653 130.864 62.6691C129.66 63.873 86.9561 85.8334 85.151 86.1346C83.3458 86.4359 68.6047 75.0038 68.6047 75.0038L138.7 40.3784Z" fill="#0094BD"/>
<path d="M4.289 39.246C4.289 39.246 4.43177 39.8787 10.4654 43.46C13.2699 45.1248 65.3937 72.4812 67.9465 72.4812C70.4994 72.4812 132.492 40.7559 133.222 39.6622C133.951 38.5684 69.4359 5.36951 69.4359 5.36951L138.869 40.1026C138.869 40.1026 69.9767 74.8151 69.9767 75.9088C69.9767 77.0025 69.4044 153.052 69.4044 153.052C69.4044 153.052 66.854 76.4932 65.0307 76.129C63.205 75.7636 0 40.0772 0 40.0772L66.9193 6.5939L4.289 39.246Z" fill="#F7FBFD"/>
<path d="M51.7584 85.2309C53.134 85.4607 62.0242 78.8742 66.1741 75.7297L67.102 74.4013C67.102 74.4013 53.2635 83.1257 51.1583 83.4269C49.0519 83.7282 11.4478 62.9704 9.64269 61.1653C7.83635 59.3601 0 40.0771 0 40.0771C0 40.0771 6.63253 61.1653 7.83635 62.3679C9.04018 63.5717 49.9533 84.9308 51.7584 85.2309Z" fill="#F7FBFD"/>
<path d="M0 73.4055V92.2251L69.4359 126.956V108.135L0 73.4055Z" fill="#FFB91D"/>
<path d="M138.898 73.4055V92.2251L69.4637 126.956V108.135L138.898 73.4055Z" fill="#B34800"/>
<path d="M67.4893 107.138L68.4596 126.421L69.5944 127.01L69.736 108.038L67.4893 107.138Z" fill="#FFE063"/>
<path d="M0.66906 73.7371L1.09736 92.7599L0 92.2251V73.4055L0.66906 73.7371Z" fill="#FFE063"/>
<path opacity="0.5" d="M138.535 73.5834L138.349 92.5627L139 92.253L138.898 73.4055L138.535 73.5834Z" fill="#FFB91D"/>
<path d="M9.71652 37.6611C9.71652 37.6611 8.10618 44.3021 12.7352 46.1132C17.3641 47.9244 37.0863 44.1012 37.0863 44.1012C37.0863 44.1012 25.0118 54.9683 25.4146 56.1758C25.8175 57.3832 41.9161 54.9683 41.9161 54.9683C41.9161 54.9683 40.7087 65.8354 41.9161 66.2383C43.1236 66.6412 65.2606 43.0958 66.2672 42.8938C67.2739 42.6929 71.2979 43.2967 72.3045 43.0946C73.3111 42.8938 95.8499 66.2371 97.0573 65.2317C98.2648 64.225 97.2582 55.7729 98.0639 55.3712C98.8685 54.9683 112.956 56.7795 112.956 55.572C112.956 54.3646 102.894 43.4975 103.9 43.9004C104.907 44.3033 125.232 49.5348 129.056 44.7049C132.879 39.8751 129.056 33.2341 127.044 33.2341C125.032 33.2341 91.0213 34.4416 91.0213 34.4416C91.0213 34.4416 61.4386 33.8379 60.6329 33.637C59.8283 33.4362 21.5914 33.2341 20.9877 33.2341C20.3828 33.2341 9.71652 37.6611 9.71652 37.6611Z" fill="#1B9DBF"/>
<path d="M47.7731 36.5866C47.7731 36.5866 26.6559 54.0923 25.8223 55.4812C24.9887 56.8702 43.1889 52.7022 43.1889 52.7022C43.1889 52.7022 41.2434 64.2335 41.7999 64.7888C42.3565 65.3441 70.9748 33.3901 71.8084 32.9739C72.6408 32.5578 47.7731 36.5866 47.7731 36.5866Z" fill="#FFBF1C"/>
<path d="M90.2154 36.5866C90.2154 36.5866 111.333 54.0923 112.166 55.4812C113 56.8702 94.7996 52.7022 94.7996 52.7022C94.7996 52.7022 96.7451 64.2335 96.1886 64.7888C95.632 65.3441 67.0149 33.3914 66.1813 32.9752C65.3477 32.5577 90.2154 36.5866 90.2154 36.5866Z" fill="#FFBF1C"/>
<path d="M64.542 36.2794C64.542 36.2794 28.0316 -7.74795 17.6509 1.20028C7.27018 10.1485 5.12266 39.5013 12.9977 43.4382C20.8728 47.3751 64.542 36.2794 64.542 36.2794Z" fill="#FFBF1C"/>
<path d="M60.605 35.9212C60.605 35.9212 15.7792 23.3434 11.9185 30.9257C8.52718 37.5872 14.0369 43.1817 16.5765 43.08C38.6869 42.1908 60.605 35.9212 60.605 35.9212Z" fill="#D65600"/>
<path d="M58.3268 31.896C58.3268 31.896 37.3343 11.1708 34.5915 19.1052C31.8632 26.9972 58.3268 31.896 58.3268 31.896Z" fill="#F7751E"/>
<path d="M73.1587 36.2793C73.1587 36.2793 109.669 -7.74798 120.05 1.20025C130.43 10.1485 132.578 39.5012 124.703 43.4382C116.828 47.3751 73.1587 36.2793 73.1587 36.2793Z" fill="#FFBF1C"/>
<path d="M77.0956 35.9212C77.0956 35.9212 121.921 23.3433 125.782 30.9256C129.173 37.5872 123.664 43.1816 121.124 43.08C99.0149 42.1908 77.0956 35.9212 77.0956 35.9212Z" fill="#D65600"/>
<path d="M79.3738 31.8959C79.3738 31.8959 100.365 11.1708 103.109 19.1052C105.837 26.9972 79.3738 31.8959 79.3738 31.8959Z" fill="#F7751E"/>
<path d="M78.2691 36.1366C78.2691 38.6386 76.222 40.6857 73.72 40.6857H63.7361C61.2341 40.6857 59.187 38.6386 59.187 36.1366V28.5857C59.187 26.0837 61.2341 24.0366 63.7361 24.0366H73.7188C76.2208 24.0366 78.2679 26.0837 78.2679 28.5857V36.1366H78.2691Z" fill="#FFBF1C"/>
<path d="M76.591 25.0638C76.614 26.408 76.5753 27.7691 76.0865 29.0141C75.4126 30.7309 73.9632 32.0206 72.4557 33.0829C69.8738 34.9025 66.935 36.2721 63.8172 36.7839C62.3133 37.0307 60.7659 37.0633 59.2523 36.871C59.6068 39.0258 61.4845 40.6857 63.7361 40.6857H73.7188C76.2208 40.6857 78.2679 38.6386 78.2679 36.1366V28.5858C78.2691 27.169 77.6122 25.8998 76.591 25.0638Z" fill="#F7751E"/>
<g style="mix-blend-mode:color">
<path d="M138.902 40.0966L129.46 35.3901C129.333 35.1675 129.199 34.9582 129.062 34.7634C130.649 24.2399 127.43 7.56304 120.05 1.20032C114.673 -3.43471 102.289 6.14144 91.5959 16.4508L69.4359 5.36712L46.4858 16.8186C35.7082 6.37132 23.0917 -3.48915 17.6509 1.20032C10.0528 7.75057 6.86603 25.2333 8.79215 35.6781L0 40.0772V118.483L69.4359 153.213L138.903 118.502V40.0966H138.902Z" fill="black"/>
</g>
</svg>
