<svg width="281" height="204" viewBox="0 0 281 204" fill="none" xmlns="http://www.w3.org/2000/svg">
<path d="M119.714 113.912L119.403 167.991L191.185 203.78L191.496 149.701L119.714 113.912Z" fill="#C41212"/>
<path d="M262.819 114.098L191.183 149.516L119.403 113.723L191.183 77.9565L262.819 114.098Z" fill="#F60112"/>
<path d="M245.633 113.748L191.182 140.879L136.731 113.727L191.182 86.5955L245.633 113.748Z" fill="#FFD7D9"/>
<path opacity="0.9852" d="M241.292 113.748L191.182 138.716L141.072 113.728L191.182 88.76L241.292 113.748Z" fill="#F60112"/>
<path d="M262.644 114.098L263 168.011L191.218 203.78L190.951 149.518L262.644 114.098Z" fill="#960000"/>
<path d="M123.607 112.866C123.607 112.866 123.754 113.518 129.992 117.209C132.891 118.925 186.777 147.115 189.416 147.115C192.055 147.115 256.142 114.422 256.896 113.295C257.651 112.168 190.954 77.9565 190.954 77.9565L262.871 114.02C262.871 114.02 191.514 149.519 191.514 150.646C191.514 151.773 191.065 203.999 191.065 203.999C191.065 203.999 190.208 151.106 188.323 150.731C186.438 150.356 119.408 113.737 119.408 113.737L188.355 79.2183L123.607 112.866Z" fill="#FFD7D9"/>
<path d="M119.417 113.728L119.403 133.407L191.185 169.196V149.802L119.417 113.728Z" fill="#FFB91D"/>
<path d="M262.997 114.012V133.407L191.215 169.196V149.802L262.997 114.012Z" fill="#B34800"/>
<path d="M189.173 148.774L190.176 168.645L191.35 169.252L191.496 149.701L189.173 148.774Z" fill="#FFE063"/>
<path d="M120.113 114.085L120.537 133.957L119.403 133.407L119.417 113.728L120.113 114.085Z" fill="#FFE063"/>
<path d="M191.182 88.76V138.716L141.072 113.728L191.182 88.76Z" fill="#C41212"/>
<path opacity="0.5" d="M262.515 114.243L262.324 133.801L262.995 133.482L262.892 114.06L262.515 114.243Z" fill="#FFB91D"/>
<path d="M116.852 180.636L91.3242 154.165L14.5918 177.627L39.7436 203.074L118.651 182.783L116.852 180.636ZM40.2064 203.115L40.0325 202.933L40.2064 203.115Z" fill="#C41212"/>
<path d="M14.5918 177.627C14.5918 177.627 35.4234 190.854 37.8362 191.131C40.2489 191.407 86.949 179.587 88.7814 176.561C90.6138 173.535 88.9678 158.284 88.9678 158.284L14.5918 177.627Z" fill="#B80000"/>
<path d="M14.5918 177.627C14.5918 177.627 34.5967 188.641 36.3552 188.683C38.1138 188.726 83.9659 175.568 85.5306 174.51C87.0954 173.451 89.9734 154.443 89.9734 154.443L14.5918 177.627Z" fill="#F60112"/>
<path d="M118.527 78.9055L91.3242 154.165L14.5918 177.627L41.7949 102.367L118.527 78.9055Z" fill="#BE8F27"/>
<path d="M118.529 78.9116L91.3255 154.167L14.5918 177.627L41.7961 102.37L118.529 78.9116Z" fill="#F60112"/>
<path d="M118.527 78.9055L145.57 106.689L118.305 181.85L91.3242 154.165L118.527 78.9055Z" fill="#960000"/>
<path d="M92.5137 154.603C92.5137 154.603 110.619 155.813 112.635 154.326C114.65 152.84 131.169 106.31 130.802 103.23C130.436 100.152 118.804 80.7969 118.804 80.7969L92.5137 154.603Z" fill="#820000"/>
<path d="M118.598 79.2371C118.598 79.2371 128.676 99.683 128.633 101.436C128.591 103.189 112.298 149.933 111.163 151.441C110.027 152.948 90.8413 154.902 90.8413 154.902L118.598 79.2371Z" fill="#BD0000"/>
<path d="M41.7958 102.37C41.7958 102.37 113.754 81.2643 113.988 82.5984C114.222 83.9325 90.4609 151.675 88.5497 153.489C86.6398 155.304 28.1224 171.958 24.8354 172.709C17.766 174.328 17.2081 173.956 17.2081 173.956L40.7877 105.07L14.5928 177.626C14.5928 177.626 87.3452 159.308 88.9687 158.283C89.8793 157.708 114.892 179.382 115.346 179.763C115.638 180.007 118.543 182.764 118.527 182.731C118.138 182.318 115.244 178.724 114.857 178.314C103.236 165.978 92.8536 154.957 92.5134 154.601C91.7329 153.786 118.528 78.9092 118.528 78.9092L41.7958 102.37Z" fill="#F7FBFD"/>
<path d="M85.5304 174.51C86.7236 173.703 88.6786 162.469 89.5404 157.173L89.2865 155.523C89.2865 155.523 85.1539 171.869 83.7918 173.591C82.431 175.313 39.4845 186.565 36.8466 186.501C34.2087 186.438 14.5903 177.626 14.5903 177.626C14.5903 177.626 34.5952 188.64 36.3538 188.682C38.1124 188.724 83.9657 175.568 85.5304 174.51Z" fill="#F7FBFD"/>
<path opacity="0.2" d="M126.897 100.945C127.693 104.472 112.62 145.774 110.337 149.228C108.055 152.681 92.5137 154.602 92.5137 154.602L92.6325 154.71C97.423 154.182 110.241 152.664 111.164 151.441C112.3 149.933 128.592 103.189 128.635 101.436C128.666 100.132 123.095 88.4794 120.242 82.6008C122.857 89.3858 126.403 98.7541 126.897 100.945Z" fill="#A8A7D7"/>
<path opacity="0.5" d="M142.306 103.731L142.159 104.123L142.306 103.731Z" fill="#FFB91D"/>
<path d="M20.1401 168.916C20.1401 168.916 23.6723 175.014 28.4278 173.074C33.1832 171.134 45.2144 154.26 45.2144 154.26C45.2144 154.26 43.9298 170.95 45.0918 171.565C46.2538 172.18 56.5789 158.931 56.5789 158.931C56.5789 158.931 63.4269 167.896 64.6176 167.338C65.8084 166.78 65.5795 133.477 66.1886 132.612C66.7977 131.747 70.2411 129.335 70.8502 128.47C71.4594 127.605 104.978 128.992 105.163 127.384C105.349 125.774 98.5674 120.185 98.8825 119.312C99.1977 118.44 111.031 109.775 110.171 108.874C109.309 107.974 94.0283 107.022 95.0689 106.606C96.1096 106.191 115.051 95.6435 114.467 89.3211C113.883 82.9999 106.286 80.7644 104.78 82.1957C103.274 83.6271 78.6838 108.709 78.6838 108.709C78.6838 108.709 56.1149 129.292 55.3694 129.713C54.6239 130.136 25.8662 157.171 25.4146 157.6C24.9631 158.03 20.1401 168.916 20.1401 168.916Z" fill="#91000A" fill-opacity="0.3"/>
<path d="M47.8523 141.058C47.8523 141.058 44.5352 169.13 44.903 170.758C45.2707 172.388 55.9173 156.338 55.9173 156.338C55.9173 156.338 62.6865 166.322 63.4995 166.342C64.3112 166.362 62.9366 122.177 63.2631 121.274C63.5883 120.371 47.8523 141.058 47.8523 141.058Z" fill="#FFBF1C"/>
<path d="M79.613 110.88C79.613 110.88 107.902 108.924 109.516 109.368C111.131 109.812 94.5384 119.643 94.5384 119.643C94.5384 119.643 104.219 126.862 104.199 127.671C104.179 128.48 59.9708 124.993 59.0502 125.274C58.1297 125.556 79.613 110.88 79.613 110.88Z" fill="#FFBF1C"/>
<path d="M60.181 128.904C60.181 128.904 1.456 122.02 0.0701471 136.076C-1.31446 150.133 18.0137 173.553 26.7154 170.892C35.417 168.231 60.181 128.904 60.181 128.904Z" fill="#FFBF1C"/>
<path d="M56.9801 131.437C56.9801 131.437 14.4651 153.927 16.9841 162.326C19.198 169.707 27.3118 169.962 29.1392 168.08C45.049 151.697 56.9801 131.437 56.9801 131.437Z" fill="#D65600"/>
<path d="M52.4038 130.055C52.4038 130.055 21.9125 129.52 25.5197 137.389C29.1069 145.215 52.4038 130.055 52.4038 130.055Z" fill="#F7751E"/>
<path d="M66.6287 122.778C66.6287 122.778 62.5474 63.9777 76.6974 63.272C90.8487 62.5664 113.391 82.935 110.307 91.4705C107.223 100.007 66.6287 122.778 66.6287 122.778Z" fill="#FFBF1C"/>
<path d="M69.3203 119.713C69.3203 119.713 93.8943 78.4603 102.191 81.3715C109.48 83.9299 109.346 92.0203 107.374 93.7496C90.1945 108.804 69.3203 119.713 69.3203 119.713Z" fill="#D65600"/>
<path d="M68.1548 115.089C68.1548 115.089 69.0816 84.7054 76.7939 88.6739C84.4636 92.6212 68.1548 115.089 68.1548 115.089Z" fill="#F7751E"/>
<path d="M70.3513 119.038C72.1361 120.904 72.0648 123.887 70.1912 125.666L62.7203 132.764C60.8479 134.543 57.856 134.472 56.0712 132.604L50.6854 126.971C48.9005 125.105 48.9718 122.123 50.8455 120.343L58.3163 113.245C60.1887 111.466 63.1806 111.537 64.9654 113.405L70.3513 119.038Z" fill="#FFBF1C"/>
<path d="M61.1978 111.972C62.1747 112.959 63.1153 114.002 63.6381 115.278C64.3585 117.038 64.1934 119.029 63.8232 120.894C63.1891 124.089 61.9671 127.198 59.9983 129.796C59.049 131.051 57.9146 132.174 56.645 133.107C58.4474 134.462 61.0365 134.365 62.7213 132.764L70.1921 125.666C72.0645 123.887 72.1358 120.904 70.3522 119.038L64.9664 113.405C63.9558 112.35 62.5599 111.869 61.1978 111.972Z" fill="#F7751E"/>
<path opacity="0.3" d="M145.57 106.689L118.529 78.9116C118.529 78.9116 140.939 107.806 141.425 108.367C141.912 108.928 118.305 181.85 118.305 181.85L145.57 106.689Z" fill="#A8A7D7"/>
<g filter="url(#filter0_dd)">
<path d="M191.865 57.0834C194.082 56.9338 196.108 57.1234 197.943 57.6522C199.828 58.1041 200.99 59.0432 201.432 60.4694C201.651 61.4806 201.624 62.5782 201.351 63.7622C201.078 64.9461 200.654 66.1959 200.079 67.5115L177.568 122.113C175.477 122.235 173.648 122.036 172.079 121.516C170.56 120.919 169.58 119.907 169.139 118.481C168.92 117.469 168.771 116.476 168.692 115.501C168.662 114.448 168.921 113.201 169.469 111.759L191.865 57.0834ZM177.403 75.9974C178.43 80.7375 177.809 84.7428 175.54 88.0134C173.271 91.2839 169.893 93.4053 165.406 94.3775C160.855 95.3634 156.87 94.8372 153.451 92.7989C150.095 90.747 147.904 87.351 146.877 82.611C145.864 77.9341 146.46 73.9673 148.666 70.7104C150.935 67.4398 154.344 65.3116 158.895 64.3257C163.382 63.3535 167.335 63.8866 170.754 65.9248C174.173 67.9631 176.39 71.3206 177.403 75.9974ZM158.348 80.1258C158.759 82.0218 159.414 83.3685 160.315 84.1659C161.265 84.8864 162.277 85.1302 163.352 84.8974C164.426 84.6647 165.215 84.0306 165.719 82.9951C166.272 81.8828 166.343 80.3787 165.932 78.4826C165.535 76.6498 164.861 75.3732 163.911 74.6527C163.024 73.9185 162.044 73.6678 160.969 73.9006C159.895 74.1333 159.074 74.7743 158.508 75.8234C158.004 76.8588 157.951 78.2929 158.348 80.1258ZM223.43 96.4954C224.457 101.235 223.836 105.241 221.567 108.511C219.298 111.782 215.92 113.903 211.433 114.875C206.882 115.861 202.897 115.335 199.478 113.297C196.122 111.245 193.931 107.849 192.904 103.109C191.891 98.4321 192.487 94.4653 194.693 91.2084C196.962 87.9378 200.371 85.8096 204.922 84.8237C209.409 83.8515 213.362 84.3846 216.781 86.4228C220.2 88.461 222.417 91.8186 223.43 96.4954ZM204.375 100.624C204.786 102.52 205.441 103.866 206.342 104.664C207.292 105.384 208.304 105.628 209.379 105.395C210.453 105.163 211.242 104.529 211.746 103.493C212.299 102.381 212.37 100.877 211.959 98.9806C211.562 97.1478 210.888 95.8712 209.938 95.1507C209.051 94.4165 208.071 94.1658 206.996 94.3986C205.922 94.6313 205.101 95.2723 204.534 96.3214C204.031 97.3568 203.978 98.7909 204.375 100.624Z" fill="#FFF8EE"/>
</g>
<defs>
<filter id="filter0_dd" x="89.3984" y="0.0339355" width="191.511" height="179.114" filterUnits="userSpaceOnUse" color-interpolation-filters="sRGB">
<feFlood flood-opacity="0" result="BackgroundImageFix"/>
<feColorMatrix in="SourceAlpha" type="matrix" values="0 0 0 0 0 0 0 0 0 0 0 0 0 0 0 0 0 0 127 0"/>
<feOffset/>
<feGaussianBlur stdDeviation="28.5"/>
<feColorMatrix type="matrix" values="0 0 0 0 0.619608 0 0 0 0 0.94902 0 0 0 0 0.976471 0 0 0 1 0"/>
<feBlend mode="normal" in2="BackgroundImageFix" result="effect1_dropShadow"/>
<feColorMatrix in="SourceAlpha" type="matrix" values="0 0 0 0 0 0 0 0 0 0 0 0 0 0 0 0 0 0 127 0"/>
<feOffset dy="4"/>
<feColorMatrix type="matrix" values="0 0 0 0 0.921569 0 0 0 0 0.611765 0 0 0 0 0 0 0 0 1 0"/>
<feBlend mode="normal" in2="effect1_dropShadow" result="effect2_dropShadow"/>
<feBlend mode="normal" in="SourceGraphic" in2="effect2_dropShadow" result="shape"/>
</filter>
</defs>
</svg>
