<svg width="375" height="518" viewBox="0 0 375 518" fill="none" xmlns="http://www.w3.org/2000/svg">
<path d="M665.689 346.224C663.894 351.889 661.886 357.44 659.665 362.859C657.364 368.524 654.817 374.009 652.058 379.315C640.663 401.191 625.416 419.687 606.054 431.849C413.37 552.997 -56.774 530.681 -221.363 454.247C-242.765 444.305 -275.48 417.728 -292.605 379.691C-295.038 374.303 -297.143 368.688 -298.874 362.859C-299.021 362.386 -299.151 361.896 -299.298 361.423C-299.315 361.358 -299.331 361.309 -299.347 361.243C-299.625 360.247 -299.886 359.252 -300.147 358.256C-300.147 358.223 -300.164 358.191 -300.18 358.158C-300.294 357.717 -300.392 357.293 -300.506 356.852C-300.621 356.362 -300.735 355.872 -300.849 355.383C-300.898 355.187 -300.931 354.991 -300.98 354.795C-300.996 354.762 -300.996 354.713 -301.012 354.681C-301.045 354.55 -301.061 354.419 -301.094 354.289C-301.094 354.256 -301.11 354.24 -301.11 354.207C-301.143 354.077 -301.159 353.962 -301.192 353.832C-301.225 353.701 -301.241 353.587 -301.274 353.456C-301.355 353.032 -301.453 352.607 -301.535 352.183C-301.617 351.759 -301.714 351.334 -301.796 350.893C-301.829 350.714 -301.861 350.55 -301.894 350.371C-301.91 350.273 -301.927 350.175 -301.943 350.077C-302.008 349.702 -302.074 349.326 -302.155 348.951C-302.172 348.885 -302.172 348.836 -302.188 348.771C-302.253 348.396 -302.318 348.036 -302.367 347.661C-302.449 347.204 -302.514 346.747 -302.58 346.29C-302.645 345.833 -302.71 345.375 -302.776 344.918C-302.776 344.886 -302.792 344.853 -302.792 344.82C-302.857 344.396 -302.906 343.971 -302.971 343.531C-303.037 343.074 -303.086 342.6 -303.151 342.143C-303.2 341.719 -303.249 341.278 -303.298 340.853C-303.298 340.804 -303.298 340.772 -303.314 340.723C-303.314 340.641 -303.331 340.56 -303.347 340.478C-303.396 340.102 -303.429 339.727 -303.461 339.351V339.319C-303.461 339.254 -303.478 339.188 -303.478 339.107C-303.51 338.731 -303.543 338.356 -303.576 337.98C-303.608 337.654 -303.624 337.344 -303.657 337.017C-303.673 336.723 -303.706 336.429 -303.722 336.135C-303.739 335.842 -303.771 335.548 -303.771 335.254C-303.788 334.911 -303.82 334.585 -303.82 334.242C-303.837 333.915 -303.853 333.572 -303.869 333.246C-303.886 332.903 -303.902 332.577 -303.918 332.234C-303.935 331.842 -303.951 331.45 -303.951 331.058V330.977C-303.951 330.765 -303.967 330.536 -303.967 330.324C-303.967 329.965 -303.984 329.622 -303.984 329.263C-303.984 328.806 -303.984 328.365 -303.984 327.908C-303.984 311.86 -300.817 294.703 -293.389 276.647C-281.831 248.568 -265.163 229.598 -245.54 215.494C-241.687 212.718 -237.72 210.139 -233.639 207.723C-229.46 205.225 -225.166 202.891 -220.791 200.687C-217.575 199.071 -214.294 197.52 -210.996 196.018C-208.939 195.087 -206.85 194.173 -204.76 193.292C-201.446 191.871 -198.1 190.516 -194.704 189.178C-142.611 168.657 -84.1347 156.169 -44.8731 102.133C-17.2675 64.1445 18.5496 36.7837 58.0235 20.0016C60.5049 18.9405 62.9863 17.9447 65.5004 16.9652C69.3857 15.4633 73.3037 14.0593 77.2381 12.7533C79.2297 12.084 81.2377 11.4473 83.2456 10.8433C83.3109 10.827 83.3763 10.7943 83.4416 10.778C85.4332 10.174 87.4412 9.6026 89.4492 9.04755C113.316 2.48489 138.016 -0.502583 162.667 0.0687925C215.609 1.27684 268.306 18.9079 311.877 52.8312C312.694 53.4516 313.494 54.0883 314.294 54.7413C315.502 55.7044 316.693 56.635 317.901 57.5492C317.967 57.5981 318.032 57.6471 318.097 57.6961C319.926 59.1 321.754 60.4387 323.583 61.7447C323.762 61.8753 323.942 61.9896 324.121 62.1202C326.015 63.4751 327.909 64.7648 329.802 66.0218C331.01 66.8218 332.218 67.589 333.41 68.3563C333.671 68.5196 333.916 68.6828 334.177 68.8297C335.353 69.5644 336.545 70.2827 337.736 71.001C338.487 71.4417 339.238 71.8825 339.973 72.307C340.12 72.3886 340.283 72.4865 340.43 72.5682C342.928 74.0048 345.409 75.3434 347.907 76.6168C455.211 131.714 554.614 49.6315 649.136 158.96C658.588 169.898 665.836 185.276 670.718 203.332C681.819 244.373 680.741 299.029 665.689 346.224Z" fill="#ECF3FB"/>
<path d="M307.486 203.397V379.234L300.564 379.266L181.392 379.707V378.842L-56.5292 379.707V378.874L-284.41 379.707H-292.605C-295.038 374.32 -297.143 368.704 -298.874 362.876C-299.021 362.402 -299.151 361.913 -299.298 361.439C-299.315 361.374 -299.331 361.325 -299.347 361.26C-299.625 360.264 -299.886 359.268 -300.147 358.272C-300.147 358.24 -300.164 358.207 -300.18 358.174C-300.294 357.733 -300.392 357.309 -300.506 356.868C-300.621 356.378 -300.735 355.889 -300.849 355.399C-300.898 355.203 -300.931 355.007 -300.98 354.811C-300.996 354.779 -300.996 354.73 -301.013 354.697C-301.045 354.566 -301.061 354.436 -301.094 354.305C-301.094 354.273 -301.11 354.256 -301.11 354.224C-301.143 354.093 -301.159 353.979 -301.192 353.848C-301.225 353.718 -301.241 353.603 -301.274 353.473C-301.355 353.048 -301.453 352.624 -301.535 352.199C-301.617 351.775 -301.714 351.35 -301.796 350.91C-301.829 350.746 -301.861 350.583 -301.894 350.404C-301.91 350.306 -301.943 350.191 -301.959 350.093C-302.025 349.718 -302.09 349.342 -302.172 348.967C-302.188 348.902 -302.188 348.853 -302.204 348.787C-302.27 348.412 -302.335 348.053 -302.384 347.677C-302.465 347.22 -302.531 346.763 -302.596 346.306C-302.661 345.849 -302.727 345.392 -302.792 344.935C-302.792 344.902 -302.808 344.869 -302.808 344.837C-302.874 344.412 -302.923 343.988 -302.988 343.547C-303.053 343.09 -303.102 342.617 -303.167 342.159C-303.216 341.735 -303.265 341.294 -303.314 340.87C-303.314 340.821 -303.314 340.788 -303.331 340.739C-303.331 340.658 -303.347 340.576 -303.363 340.494C-303.412 340.119 -303.445 339.743 -303.478 339.368V339.335C-303.478 339.27 -303.494 339.205 -303.494 339.123C-303.527 338.747 -303.559 338.372 -303.592 337.997C-303.625 337.67 -303.641 337.36 -303.673 337.033C-303.69 336.74 -303.722 336.446 -303.739 336.152C-303.755 335.858 -303.788 335.564 -303.788 335.27C-303.804 334.927 -303.837 334.601 -303.837 334.258C-303.853 333.932 -303.869 333.589 -303.886 333.262C-303.902 332.919 -303.918 332.593 -303.935 332.25C-303.951 331.858 -303.967 331.467 -303.967 331.075V330.993C-303.967 330.781 -303.984 330.552 -303.984 330.34C-303.984 329.981 -304 329.638 -304 329.279C-304 328.822 -304 328.381 -304 327.924C-304 318.047 -302.808 307.746 -300.147 297.053C-298.498 290.393 -296.262 283.585 -293.405 276.647C-281.847 248.568 -265.179 229.598 -245.556 215.494V227.15H-233.656V207.723C-229.476 205.225 -225.183 202.891 -220.808 200.687C-217.592 199.071 -214.31 197.52 -211.013 196.018C-208.956 195.087 -206.866 194.173 -204.777 193.292C-201.463 191.871 -198.116 190.516 -194.72 189.178V223.705H-181.579V215.918L-166.07 215.983V203.364H-162.952V200.866H-162.544V203.364H-150.578H-148.178V200.866H-147.77V203.364H-144.88V228.456H-126.433V237.696H-116.181V232.357H-106.663V211.07H-101.929V201.144H-101.211V211.07H-89.8322V192.459H-88.7221V211.07H-81.1962V210.808H-81.2126V208.441H-81.1962V206.205H-81.2126V202.483H-81.1962V200.099H-81.2126V196.377H-81.1962V194.01H-81.2126V190.288H-81.1962V187.725H-81.2126V184.003H-81.1962V180.738H-81.2126V177.016H-81.1962V174.567H-78.9597V171.792H-78.6006V174.583H-61.998V171.792H-61.6389V174.583H-58.6024V194.043L-56.4639 194.059V194.043H-56.4802V190.32H-56.4639V187.757H-56.4802V184.035H-56.4639V181.472H-56.4802V177.75H-56.4639V177.734H-36.3351V177.75H-32.8742C-32.6946 177.848 -32.515 177.946 -32.3355 178.044V199.283H-17.6103V227.166H-5.72571V175.595H-3.14636V171.987H-2.67294V175.595H6.71393V171.987H7.17105V175.595H20.4596V171.987H20.933V175.595H29.3078V171.987H29.7812V175.595H33.2258V223.738H46.3674V215.951L61.8762 216.016V203.397H64.9943V200.899H65.4024V203.397H77.3686H79.7684V200.899H80.1765V203.397H83.066V228.488H101.513V237.728H111.765V232.357H121.283V211.07H126.033V201.144H126.752V211.07H138.13V192.459H139.24V211.07H146.766V210.808H146.75V208.441H146.766V206.205H146.75V202.483H146.766V200.099H146.75V196.377H146.766V194.01H146.75V190.288H146.766V187.725H146.75V184.003H146.766V180.738H146.75V177.016H146.766V174.567H149.003V171.792H149.362V174.583H165.964V171.792H166.324V174.583H169.36V194.043L171.466 194.059H171.499V194.043H171.482V190.32H171.499V187.757H171.482V184.035H171.499V181.472H171.482V177.75H171.499V177.734H191.627V177.75H195.088C195.268 177.848 195.447 177.946 195.627 178.044V199.283H220.327V227.166H232.228V175.595H234.807V171.987H235.28V175.595H244.667V171.987H245.141V175.595H258.429V171.987H258.886V175.595H271.163V223.738H284.304V215.951L299.813 216.016V203.397H302.931V200.899H303.339V203.397H307.486Z" fill="#D6E4F5"/>
<path d="M33.2421 175.595H3.53052V183.758H33.2421V175.595Z" fill="#E3EDF8"/>
<path d="M33.2421 188.149H3.53052V196.312H33.2421V188.149Z" fill="#E3EDF8"/>
<path d="M33.2421 200.981H3.53052V209.143H33.2421V200.981Z" fill="#E3EDF8"/>
<path d="M33.2421 214.008H3.53052V222.171H33.2421V214.008Z" fill="#E3EDF8"/>
<path d="M33.2421 226.578H3.53052V234.741H33.2421V226.578Z" fill="#E3EDF8"/>
<path d="M160.659 174.567H146.799V179.53H160.659V174.567Z" fill="#E3EDF8"/>
<path d="M160.659 182.207H146.799V187.17H160.659V182.207Z" fill="#E3EDF8"/>
<path d="M160.659 189.994H146.799V194.957H160.659V189.994Z" fill="#E3EDF8"/>
<path d="M160.659 197.895H146.799V202.858H160.659V197.895Z" fill="#E3EDF8"/>
<path d="M160.659 205.535H146.799V210.498H160.659V205.535Z" fill="#E3EDF8"/>
<path d="M160.659 213.926H146.799V218.889H160.659V213.926Z" fill="#E3EDF8"/>
<path d="M160.659 221.567H146.799V226.529H160.659V221.567Z" fill="#E3EDF8"/>
<path d="M160.659 229.354H146.799V234.316H160.659V229.354Z" fill="#E3EDF8"/>
<path d="M160.659 237.255H146.799V242.218H160.659V237.255Z" fill="#E3EDF8"/>
<path d="M160.659 244.895H146.799V249.858H160.659V244.895Z" fill="#E3EDF8"/>
<path d="M186.305 177.816H171.45V182.778H186.305V177.816Z" fill="#E3EDF8"/>
<path d="M186.305 185.456H171.45V190.418H186.305V185.456Z" fill="#E3EDF8"/>
<path d="M186.305 193.243H171.45V198.205H186.305V193.243Z" fill="#E3EDF8"/>
<path d="M186.305 201.144H171.45V206.107H186.305V201.144Z" fill="#E3EDF8"/>
<path d="M186.305 208.784H171.45V213.747H186.305V208.784Z" fill="#E3EDF8"/>
<path d="M186.305 216.734H171.45V221.697H186.305V216.734Z" fill="#E3EDF8"/>
<path d="M186.305 224.358H171.45V229.321H186.305V224.358Z" fill="#E3EDF8"/>
<path d="M186.305 232.145H171.45V237.108H186.305V232.145Z" fill="#E3EDF8"/>
<path d="M186.305 240.063H171.45V245.026H186.305V240.063Z" fill="#E3EDF8"/>
<path d="M186.305 247.703H171.45V252.666H186.305V247.703Z" fill="#E3EDF8"/>
<path d="M186.305 256.453H171.45V261.416H186.305V256.453Z" fill="#E3EDF8"/>
<path d="M186.305 264.077H171.45V269.04H186.305V264.077Z" fill="#E3EDF8"/>
<path d="M186.305 271.864H171.45V276.827H186.305V271.864Z" fill="#E3EDF8"/>
<path d="M186.305 279.782H171.45V284.744H186.305V279.782Z" fill="#E3EDF8"/>
<path d="M186.305 287.405H171.45V292.368H186.305V287.405Z" fill="#E3EDF8"/>
<path d="M271.146 175.595H244.096V183.758H271.146V175.595Z" fill="#E3EDF8"/>
<path d="M271.146 188.149H244.096V196.312H271.146V188.149Z" fill="#E3EDF8"/>
<path d="M271.146 200.981H244.096V209.143H271.146V200.981Z" fill="#E3EDF8"/>
<path d="M271.146 214.008H244.096V222.171H271.146V214.008Z" fill="#E3EDF8"/>
<path d="M271.146 226.578H244.096V234.741H271.146V226.578Z" fill="#E3EDF8"/>
<path d="M670.734 203.397C683.157 249.286 680.3 312.35 659.665 362.86C657.364 368.524 654.817 374.01 652.058 379.315L547.986 379.691V378.858L320.105 379.691H300.548V232.129H320.073V199.283H359.008V227.166H370.909V175.595H373.488V171.987H373.961V175.595H383.348V171.987H383.822V175.595H397.11V171.987H397.584V175.595H405.942V171.987H406.415V175.595H409.844V223.738H422.985V215.951L438.494 216.016V203.397H441.612V200.899H442.02V203.397H453.987H456.386V200.899H456.794V203.397H459.684V228.488H478.131V237.728H488.383V232.357H497.901V211.07H502.635V201.144H503.353V211.07H514.732V192.459H515.842V211.07H523.368V210.808H523.352V208.441H523.368V206.205H523.352V202.483H523.368V200.099H523.352V196.377H523.368V194.01H523.352V190.288H523.368V187.725H523.352V184.003H523.368V180.738H523.352V177.016H523.368V174.567H525.604V171.792H525.964V174.583H542.566V171.792H542.925V174.583H545.962V194.043L548.1 194.059V194.043H548.084V190.32H548.1V187.757H548.084V184.035H548.1V181.472H548.084V177.75H548.1V177.734H568.229V177.75H571.69C571.869 177.848 572.049 177.946 572.229 178.044V199.283H586.954V227.166H598.838V175.595H601.418V171.987H601.891V175.595H611.278V171.987H611.735V175.595H625.024V171.987H625.497V175.595H633.856V171.987H634.329V175.595H637.774V223.738H650.915V215.951L666.424 216.016V203.397H669.542V200.899H669.95V203.397H670.734Z" fill="#D6E4F5"/>
<path d="M399.788 175.595H370.909V183.758H399.788V175.595Z" fill="#E3EDF8"/>
<path d="M399.788 187.888H370.909V196.051H399.788V187.888Z" fill="#E3EDF8"/>
<path d="M399.788 200.703H370.909V208.866H399.788V200.703Z" fill="#E3EDF8"/>
<path d="M399.788 213.731H370.909V221.893H399.788V213.731Z" fill="#E3EDF8"/>
<path d="M399.788 226.301H370.909V234.463H399.788V226.301Z" fill="#E3EDF8"/>
<path d="M659.665 362.86C647.813 391.869 630.117 416.732 606.07 431.849C413.37 552.997 -56.7577 530.681 -221.363 454.247C-245.801 442.901 -284.965 409.859 -298.874 362.86H659.665Z" fill="#B8CDEB"/>
<path d="M665.689 346.224C663.894 351.889 661.886 357.44 659.665 362.86C657.364 368.524 654.817 374.01 652.058 379.315C646.41 390.171 639.814 400.179 632.239 408.994C629.676 411.981 626.999 414.822 624.224 417.532C621.889 419.785 619.49 421.94 616.992 423.98C613.498 426.837 609.858 429.466 606.07 431.865C437.433 537.864 56.3257 534.011 -146.545 480.171C-175.49 472.498 -200.81 463.781 -221.363 454.247C-242.765 444.305 -275.48 417.728 -292.605 379.691C-295.038 374.303 -297.143 368.688 -298.874 362.86C-300.082 358.811 -301.094 354.648 -301.878 350.387L-303.967 327.94C-303.967 327.94 -203.503 324.202 -121.764 348.167C-40.0246 372.132 209.471 344.363 271.146 348.167C332.806 351.971 457.072 371.463 511.957 358.011C554.483 347.596 626.526 341.621 665.689 346.224Z" fill="#E8EFF9"/>
<path d="M59.0519 309.64C59.0519 309.64 55.2482 320.561 63.6719 327.075C72.0793 333.589 89.0736 324.937 97.5953 327.075C114.051 331.222 113.153 310.391 111.586 298.474C109.725 284.336 97.5953 280.418 103.391 269.66C108.86 259.522 89.4655 249.042 78.7889 254.592C63.0026 262.804 76.6177 272.745 62.5292 283.569C54.2524 289.919 62.0394 304.971 59.0519 309.64Z" fill="#F3F7FC"/>
<path d="M85.825 269.66L86.3637 344.641H88.1758L87.0003 270.28L85.825 269.66Z" fill="#B8CDEB"/>
<path d="M333.328 302.963C333.328 302.963 327.892 318.602 339.94 327.94C351.988 337.278 376.329 324.871 388.54 327.94C412.129 333.883 410.823 304.024 408.57 286.965C405.893 266.705 388.54 261.089 396.833 245.695C404.669 231.166 376.867 216.163 361.587 224.113C338.977 235.867 358.469 250.119 338.291 265.628C326.439 274.704 337.606 296.27 333.328 302.963Z" fill="#F3F7FC"/>
<path d="M371.692 245.695L372.46 353.114H375.055L373.374 246.56L371.692 245.695Z" fill="#B8CDEB"/>
<path d="M42.2535 357.342C42.2535 357.342 84.7964 331.711 139.632 341.359C194.468 351.008 205.079 335.482 234.742 339.188C264.404 342.878 287.373 348.461 283.129 354.256C278.901 360.052 26.4998 371.773 42.2535 357.342Z" fill="#F1F6FC"/>
<path d="M-208.237 443.815C-208.237 443.815 -163.278 412.047 -105.341 424.013C-47.4035 435.979 -36.2045 416.732 -4.84413 421.319C26.4999 425.907 50.7589 432.812 46.2858 439.995C41.7801 447.178 -224.905 461.707 -208.237 443.815Z" fill="#F1F6FC"/>
</svg>
