<svg width="798" height="518" viewBox="0 0 798 518" fill="none" xmlns="http://www.w3.org/2000/svg">
<path d="M877.689 346.224C875.894 351.889 873.886 357.44 871.665 362.859C869.364 368.524 866.817 374.009 864.058 379.315C852.663 401.191 837.416 419.687 818.054 431.849C625.37 552.997 155.226 530.681 -9.36275 454.247C-30.7648 444.305 -63.4802 417.728 -80.6051 379.691C-83.0375 374.303 -85.1435 368.688 -86.8739 362.859C-87.0208 362.386 -87.1514 361.896 -87.2984 361.423C-87.3147 361.358 -87.331 361.309 -87.3473 361.243C-87.6249 360.247 -87.8861 359.252 -88.1473 358.256C-88.1473 358.223 -88.1636 358.191 -88.1799 358.158C-88.2942 357.717 -88.3921 357.293 -88.5064 356.852C-88.6207 356.362 -88.735 355.872 -88.8492 355.383C-88.8982 355.187 -88.9309 354.991 -88.9798 354.795C-88.9962 354.762 -88.9962 354.713 -89.0125 354.681C-89.0451 354.55 -89.0615 354.419 -89.0941 354.289C-89.0941 354.256 -89.1104 354.24 -89.1104 354.207C-89.1431 354.077 -89.1594 353.962 -89.1921 353.832C-89.2247 353.701 -89.241 353.587 -89.2737 353.456C-89.3553 353.032 -89.4533 352.607 -89.5349 352.183C-89.6165 351.759 -89.7145 351.334 -89.7961 350.893C-89.8287 350.714 -89.8614 350.55 -89.894 350.371C-89.9104 350.273 -89.9267 350.175 -89.943 350.077C-90.0083 349.702 -90.0736 349.326 -90.1552 348.951C-90.1716 348.885 -90.1716 348.836 -90.1879 348.771C-90.2532 348.396 -90.3185 348.036 -90.3675 347.661C-90.4491 347.204 -90.5144 346.747 -90.5797 346.29C-90.645 345.833 -90.7103 345.375 -90.7756 344.918C-90.7756 344.886 -90.7919 344.853 -90.7919 344.82C-90.8572 344.396 -90.9062 343.971 -90.9715 343.531C-91.0368 343.074 -91.0858 342.6 -91.1511 342.143C-91.2 341.719 -91.249 341.278 -91.298 340.853C-91.298 340.804 -91.298 340.772 -91.3143 340.723C-91.3143 340.641 -91.3306 340.56 -91.347 340.478C-91.3959 340.102 -91.4286 339.727 -91.4612 339.351V339.319C-91.4612 339.254 -91.4776 339.188 -91.4776 339.107C-91.5102 338.731 -91.5429 338.356 -91.5755 337.98C-91.6082 337.654 -91.6245 337.344 -91.6571 337.017C-91.6735 336.723 -91.7061 336.429 -91.7224 336.135C-91.7388 335.842 -91.7714 335.548 -91.7714 335.254C-91.7877 334.911 -91.8204 334.585 -91.8204 334.242C-91.8367 333.915 -91.853 333.572 -91.8694 333.246C-91.8857 332.903 -91.902 332.577 -91.9183 332.234C-91.9347 331.842 -91.951 331.45 -91.951 331.058V330.977C-91.951 330.765 -91.9673 330.536 -91.9673 330.324C-91.9673 329.965 -91.9836 329.622 -91.9836 329.263C-91.9836 328.806 -91.9836 328.365 -91.9836 327.908C-91.9836 311.86 -88.8166 294.703 -81.3887 276.647C-69.8306 248.568 -53.1628 229.598 -33.5401 215.494C-29.6874 212.718 -25.7204 210.139 -21.6392 207.723C-17.46 205.225 -13.1665 202.891 -8.79138 200.687C-5.57536 199.071 -2.29403 197.52 1.00362 196.018C3.06057 195.087 5.15018 194.173 7.23978 193.292C10.5538 191.871 13.9004 190.516 17.296 189.178C69.3891 168.657 127.865 156.169 167.127 102.133C194.733 64.1445 230.55 36.7837 270.023 20.0016C272.505 18.9405 274.986 17.9447 277.5 16.9652C281.386 15.4633 285.304 14.0593 289.238 12.7533C291.23 12.084 293.238 11.4473 295.246 10.8433C295.311 10.827 295.376 10.7943 295.442 10.778C297.433 10.174 299.441 9.6026 301.449 9.04755C325.316 2.48489 350.016 -0.502583 374.667 0.0687925C427.609 1.27684 480.306 18.9079 523.877 52.8312C524.694 53.4516 525.494 54.0883 526.294 54.7413C527.502 55.7044 528.693 56.635 529.901 57.5492C529.967 57.5981 530.032 57.6471 530.097 57.6961C531.926 59.1 533.754 60.4387 535.583 61.7447C535.762 61.8753 535.942 61.9896 536.121 62.1202C538.015 63.4751 539.909 64.7648 541.802 66.0218C543.01 66.8218 544.218 67.589 545.41 68.3563C545.671 68.5196 545.916 68.6828 546.177 68.8297C547.353 69.5644 548.545 70.2827 549.736 71.001C550.487 71.4417 551.238 71.8825 551.973 72.307C552.12 72.3886 552.283 72.4865 552.43 72.5682C554.928 74.0048 557.409 75.3434 559.907 76.6168C667.211 131.714 766.614 49.6315 861.136 158.96C870.588 169.898 877.836 185.276 882.718 203.332C893.819 244.373 892.741 299.029 877.689 346.224Z" fill="#ECF3FB"/>
<path d="M519.486 203.397V379.234L512.564 379.266L393.392 379.707V378.842L155.471 379.707V378.874L-72.41 379.707H-80.6051C-83.0376 374.32 -85.1435 368.704 -86.8739 362.876C-87.0209 362.402 -87.1515 361.913 -87.2984 361.439C-87.3147 361.374 -87.331 361.325 -87.3474 361.26C-87.6249 360.264 -87.8861 359.268 -88.1473 358.272C-88.1473 358.24 -88.1636 358.207 -88.1799 358.174C-88.2942 357.733 -88.3922 357.309 -88.5064 356.868C-88.6207 356.378 -88.735 355.889 -88.8493 355.399C-88.8982 355.203 -88.9309 355.007 -88.9799 354.811C-88.9962 354.779 -88.9962 354.73 -89.0125 354.697C-89.0452 354.566 -89.0615 354.436 -89.0941 354.305C-89.0941 354.273 -89.1105 354.256 -89.1105 354.224C-89.1431 354.093 -89.1594 353.979 -89.1921 353.848C-89.2247 353.718 -89.2411 353.603 -89.2737 353.473C-89.3553 353.048 -89.4533 352.624 -89.5349 352.199C-89.6165 351.775 -89.7145 351.35 -89.7961 350.91C-89.8288 350.746 -89.8614 350.583 -89.8941 350.404C-89.9104 350.306 -89.943 350.191 -89.9594 350.093C-90.0247 349.718 -90.09 349.342 -90.1716 348.967C-90.1879 348.902 -90.1879 348.853 -90.2042 348.787C-90.2695 348.412 -90.3348 348.053 -90.3838 347.677C-90.4654 347.22 -90.5307 346.763 -90.596 346.306C-90.6613 345.849 -90.7266 345.392 -90.7919 344.935C-90.7919 344.902 -90.8083 344.869 -90.8083 344.837C-90.8736 344.412 -90.9225 343.988 -90.9878 343.547C-91.0531 343.09 -91.1021 342.617 -91.1674 342.159C-91.2164 341.735 -91.2654 341.294 -91.3143 340.87C-91.3143 340.821 -91.3143 340.788 -91.3307 340.739C-91.3307 340.658 -91.347 340.576 -91.3633 340.494C-91.4123 340.119 -91.4449 339.743 -91.4776 339.368V339.335C-91.4776 339.27 -91.4939 339.205 -91.4939 339.123C-91.5266 338.747 -91.5592 338.372 -91.5919 337.997C-91.6245 337.67 -91.6408 337.36 -91.6735 337.033C-91.6898 336.74 -91.7225 336.446 -91.7388 336.152C-91.7551 335.858 -91.7878 335.564 -91.7878 335.27C-91.8041 334.927 -91.8367 334.601 -91.8367 334.258C-91.8531 333.932 -91.8694 333.589 -91.8857 333.262C-91.902 332.919 -91.9184 332.593 -91.9347 332.25C-91.951 331.858 -91.9673 331.467 -91.9673 331.075V330.993C-91.9673 330.781 -91.9837 330.552 -91.9837 330.34C-91.9837 329.981 -92 329.638 -92 329.279C-92 328.822 -92 328.381 -92 327.924C-92 318.047 -90.8083 307.746 -88.1473 297.053C-86.4985 290.393 -84.2619 283.585 -81.4051 276.647C-69.847 248.568 -53.1791 229.598 -33.5565 215.494V227.15H-21.6555V207.723C-17.4763 205.225 -13.1828 202.891 -8.80774 200.687C-5.59171 199.071 -2.31038 197.52 0.987274 196.018C3.04423 195.087 5.13382 194.173 7.22342 193.292C10.5374 191.871 13.884 190.516 17.2796 189.178V223.705H30.4213V215.918L45.93 215.983V203.364H49.0481V200.866H49.4562V203.364H61.4225H63.8222V200.866H64.2304V203.364H67.1199V228.456H85.5671V237.696H95.8193V232.357H105.337V211.07H110.071V201.144H110.789V211.07H122.168V192.459H123.278V211.07H130.804V210.808H130.787V208.441H130.804V206.205H130.787V202.483H130.804V200.099H130.787V196.377H130.804V194.01H130.787V190.288H130.804V187.725H130.787V184.003H130.804V180.738H130.787V177.016H130.804V174.567H133.04V171.792H133.399V174.583H150.002V171.792H150.361V174.583H153.398V194.043L155.536 194.059V194.043H155.52V190.32H155.536V187.757H155.52V184.035H155.536V181.472H155.52V177.75H155.536V177.734H175.665V177.75H179.126C179.305 177.848 179.485 177.946 179.665 178.044V199.283H194.39V227.166H206.274V175.595H208.854V171.987H209.327V175.595H218.714V171.987H219.171V175.595H232.46V171.987H232.933V175.595H241.308V171.987H241.781V175.595H245.226V223.738H258.367V215.951L273.876 216.016V203.397H276.994V200.899H277.402V203.397H289.369H291.768V200.899H292.177V203.397H295.066V228.488H313.513V237.728H323.765V232.357H333.283V211.07H338.033V201.144H338.752V211.07H350.13V192.459H351.24V211.07H358.766V210.808H358.75V208.441H358.766V206.205H358.75V202.483H358.766V200.099H358.75V196.377H358.766V194.01H358.75V190.288H358.766V187.725H358.75V184.003H358.766V180.738H358.75V177.016H358.766V174.567H361.003V171.792H361.362V174.583H377.964V171.792H378.324V174.583H381.36V194.043L383.466 194.059H383.499V194.043H383.482V190.32H383.499V187.757H383.482V184.035H383.499V181.472H383.482V177.75H383.499V177.734H403.627V177.75H407.088C407.268 177.848 407.447 177.946 407.627 178.044V199.283H432.327V227.166H444.228V175.595H446.807V171.987H447.28V175.595H456.667V171.987H457.141V175.595H470.429V171.987H470.886V175.595H483.163V223.738H496.304V215.951L511.813 216.016V203.397H514.931V200.899H515.339V203.397H519.486Z" fill="#D6E4F5"/>
<path d="M245.242 175.595H215.531V183.758H245.242V175.595Z" fill="#E3EDF8"/>
<path d="M245.242 188.149H215.531V196.312H245.242V188.149Z" fill="#E3EDF8"/>
<path d="M245.242 200.981H215.531V209.143H245.242V200.981Z" fill="#E3EDF8"/>
<path d="M245.242 214.008H215.531V222.171H245.242V214.008Z" fill="#E3EDF8"/>
<path d="M245.242 226.578H215.531V234.741H245.242V226.578Z" fill="#E3EDF8"/>
<path d="M372.659 174.567H358.799V179.53H372.659V174.567Z" fill="#E3EDF8"/>
<path d="M372.659 182.207H358.799V187.17H372.659V182.207Z" fill="#E3EDF8"/>
<path d="M372.659 189.994H358.799V194.957H372.659V189.994Z" fill="#E3EDF8"/>
<path d="M372.659 197.895H358.799V202.858H372.659V197.895Z" fill="#E3EDF8"/>
<path d="M372.659 205.535H358.799V210.498H372.659V205.535Z" fill="#E3EDF8"/>
<path d="M372.659 213.926H358.799V218.889H372.659V213.926Z" fill="#E3EDF8"/>
<path d="M372.659 221.567H358.799V226.529H372.659V221.567Z" fill="#E3EDF8"/>
<path d="M372.659 229.354H358.799V234.316H372.659V229.354Z" fill="#E3EDF8"/>
<path d="M372.659 237.255H358.799V242.218H372.659V237.255Z" fill="#E3EDF8"/>
<path d="M372.659 244.895H358.799V249.858H372.659V244.895Z" fill="#E3EDF8"/>
<path d="M398.305 177.816H383.45V182.778H398.305V177.816Z" fill="#E3EDF8"/>
<path d="M398.305 185.456H383.45V190.418H398.305V185.456Z" fill="#E3EDF8"/>
<path d="M398.305 193.243H383.45V198.205H398.305V193.243Z" fill="#E3EDF8"/>
<path d="M398.305 201.144H383.45V206.107H398.305V201.144Z" fill="#E3EDF8"/>
<path d="M398.305 208.784H383.45V213.747H398.305V208.784Z" fill="#E3EDF8"/>
<path d="M398.305 216.734H383.45V221.697H398.305V216.734Z" fill="#E3EDF8"/>
<path d="M398.305 224.358H383.45V229.321H398.305V224.358Z" fill="#E3EDF8"/>
<path d="M398.305 232.145H383.45V237.108H398.305V232.145Z" fill="#E3EDF8"/>
<path d="M398.305 240.063H383.45V245.026H398.305V240.063Z" fill="#E3EDF8"/>
<path d="M398.305 247.703H383.45V252.666H398.305V247.703Z" fill="#E3EDF8"/>
<path d="M398.305 256.453H383.45V261.416H398.305V256.453Z" fill="#E3EDF8"/>
<path d="M398.305 264.077H383.45V269.04H398.305V264.077Z" fill="#E3EDF8"/>
<path d="M398.305 271.864H383.45V276.827H398.305V271.864Z" fill="#E3EDF8"/>
<path d="M398.305 279.782H383.45V284.744H398.305V279.782Z" fill="#E3EDF8"/>
<path d="M398.305 287.405H383.45V292.368H398.305V287.405Z" fill="#E3EDF8"/>
<path d="M483.146 175.595H456.096V183.758H483.146V175.595Z" fill="#E3EDF8"/>
<path d="M483.146 188.149H456.096V196.312H483.146V188.149Z" fill="#E3EDF8"/>
<path d="M483.146 200.981H456.096V209.143H483.146V200.981Z" fill="#E3EDF8"/>
<path d="M483.146 214.008H456.096V222.171H483.146V214.008Z" fill="#E3EDF8"/>
<path d="M483.146 226.578H456.096V234.741H483.146V226.578Z" fill="#E3EDF8"/>
<path d="M145.545 174.567H130.689V179.53H145.545V174.567Z" fill="#E3EDF8"/>
<path d="M145.545 182.207H130.689V187.17H145.545V182.207Z" fill="#E3EDF8"/>
<path d="M145.545 189.994H130.689V194.957H145.545V189.994Z" fill="#E3EDF8"/>
<path d="M145.545 197.895H130.689V202.858H145.545V197.895Z" fill="#E3EDF8"/>
<path d="M145.545 205.535H130.689V210.498H145.545V205.535Z" fill="#E3EDF8"/>
<path d="M145.545 213.926H130.689V218.889H145.545V213.926Z" fill="#E3EDF8"/>
<path d="M145.545 221.567H130.689V226.529H145.545V221.567Z" fill="#E3EDF8"/>
<path d="M145.545 229.354H130.689V234.316H145.545V229.354Z" fill="#E3EDF8"/>
<path d="M145.545 237.255H130.689V242.218H145.545V237.255Z" fill="#E3EDF8"/>
<path d="M145.545 244.895H130.689V249.858H145.545V244.895Z" fill="#E3EDF8"/>
<path d="M172.726 177.816H155.846V182.778H172.726V177.816Z" fill="#E3EDF8"/>
<path d="M172.726 185.456H155.846V190.418H172.726V185.456Z" fill="#E3EDF8"/>
<path d="M172.726 193.243H155.846V198.205H172.726V193.243Z" fill="#E3EDF8"/>
<path d="M172.726 201.144H155.846V206.107H172.726V201.144Z" fill="#E3EDF8"/>
<path d="M172.726 208.784H155.846V213.747H172.726V208.784Z" fill="#E3EDF8"/>
<path d="M172.726 216.734H155.846V221.697H172.726V216.734Z" fill="#E3EDF8"/>
<path d="M172.726 224.358H155.846V229.321H172.726V224.358Z" fill="#E3EDF8"/>
<path d="M172.726 232.145H155.846V237.108H172.726V232.145Z" fill="#E3EDF8"/>
<path d="M172.726 240.063H155.846V245.026H172.726V240.063Z" fill="#E3EDF8"/>
<path d="M172.726 247.703H155.846V252.666H172.726V247.703Z" fill="#E3EDF8"/>
<path d="M172.726 256.453H155.846V261.416H172.726V256.453Z" fill="#E3EDF8"/>
<path d="M172.726 264.077H155.846V269.04H172.726V264.077Z" fill="#E3EDF8"/>
<path d="M172.726 271.864H155.846V276.827H172.726V271.864Z" fill="#E3EDF8"/>
<path d="M172.726 279.782H155.846V284.744H172.726V279.782Z" fill="#E3EDF8"/>
<path d="M172.726 287.405H155.846V292.368H172.726V287.405Z" fill="#E3EDF8"/>
<path d="M882.734 203.397C895.157 249.286 892.3 312.35 871.665 362.86C869.364 368.524 866.817 374.01 864.058 379.315L759.986 379.691V378.858L532.105 379.691H512.548V232.129H532.073V199.283H571.008V227.166H582.909V175.595H585.488V171.987H585.961V175.595H595.348V171.987H595.822V175.595H609.11V171.987H609.584V175.595H617.942V171.987H618.416V175.595H621.844V223.738H634.985V215.951L650.494 216.016V203.397H653.612V200.899H654.02V203.397H665.987H668.386V200.899H668.795V203.397H671.684V228.488H690.131V237.728H700.383V232.357H709.901V211.07H714.635V201.144H715.353V211.07H726.732V192.459H727.842V211.07H735.368V210.808H735.352V208.441H735.368V206.205H735.352V202.483H735.368V200.099H735.352V196.377H735.368V194.01H735.352V190.288H735.368V187.725H735.352V184.003H735.368V180.738H735.352V177.016H735.368V174.567H737.604V171.792H737.964V174.583H754.566V171.792H754.925V174.583H757.962V194.043L760.1 194.059V194.043H760.084V190.32H760.1V187.757H760.084V184.035H760.1V181.472H760.084V177.75H760.1V177.734H780.229V177.75H783.69C783.87 177.848 784.049 177.946 784.229 178.044V199.283H798.954V227.166H810.839V175.595H813.418V171.987H813.891V175.595H823.278V171.987H823.735V175.595H837.024V171.987H837.497V175.595H845.856V171.987H846.329V175.595H849.774V223.738H862.915V215.951L878.424 216.016V203.397H881.542V200.899H881.95V203.397H882.734Z" fill="#D6E4F5"/>
<path d="M611.788 175.595H582.909V183.758H611.788V175.595Z" fill="#E3EDF8"/>
<path d="M611.788 187.888H582.909V196.051H611.788V187.888Z" fill="#E3EDF8"/>
<path d="M611.788 200.703H582.909V208.866H611.788V200.703Z" fill="#E3EDF8"/>
<path d="M611.788 213.731H582.909V221.893H611.788V213.731Z" fill="#E3EDF8"/>
<path d="M611.788 226.301H582.909V234.463H611.788V226.301Z" fill="#E3EDF8"/>
<path d="M750.077 174.567H735.221V179.53H750.077V174.567Z" fill="#E3EDF8"/>
<path d="M750.077 182.207H735.221V187.17H750.077V182.207Z" fill="#E3EDF8"/>
<path d="M750.077 189.994H735.221V194.957H750.077V189.994Z" fill="#E3EDF8"/>
<path d="M750.077 197.895H735.221V202.858H750.077V197.895Z" fill="#E3EDF8"/>
<path d="M750.077 205.535H735.221V210.498H750.077V205.535Z" fill="#E3EDF8"/>
<path d="M750.077 213.926H735.221V218.889H750.077V213.926Z" fill="#E3EDF8"/>
<path d="M750.077 221.567H735.221V226.529H750.077V221.567Z" fill="#E3EDF8"/>
<path d="M750.077 229.354H735.221V234.316H750.077V229.354Z" fill="#E3EDF8"/>
<path d="M750.077 237.255H735.221V242.218H750.077V237.255Z" fill="#E3EDF8"/>
<path d="M750.077 244.895H735.221V249.858H750.077V244.895Z" fill="#E3EDF8"/>
<path d="M777.258 177.816H760.378V182.778H777.258V177.816Z" fill="#E3EDF8"/>
<path d="M777.258 185.456H760.378V190.418H777.258V185.456Z" fill="#E3EDF8"/>
<path d="M777.258 193.243H760.378V198.205H777.258V193.243Z" fill="#E3EDF8"/>
<path d="M777.258 201.144H760.378V206.107H777.258V201.144Z" fill="#E3EDF8"/>
<path d="M777.258 208.784H760.378V213.747H777.258V208.784Z" fill="#E3EDF8"/>
<path d="M777.258 216.734H760.378V221.697H777.258V216.734Z" fill="#E3EDF8"/>
<path d="M777.258 224.358H760.378V229.321H777.258V224.358Z" fill="#E3EDF8"/>
<path d="M777.258 232.145H760.378V237.108H777.258V232.145Z" fill="#E3EDF8"/>
<path d="M777.258 240.063H760.378V245.026H777.258V240.063Z" fill="#E3EDF8"/>
<path d="M777.258 247.703H760.378V252.666H777.258V247.703Z" fill="#E3EDF8"/>
<path d="M777.258 256.453H760.378V261.416H777.258V256.453Z" fill="#E3EDF8"/>
<path d="M777.258 264.077H760.378V269.04H777.258V264.077Z" fill="#E3EDF8"/>
<path d="M777.258 271.864H760.378V276.827H777.258V271.864Z" fill="#E3EDF8"/>
<path d="M777.258 279.782H760.378V284.744H777.258V279.782Z" fill="#E3EDF8"/>
<path d="M777.258 287.405H760.378V292.368H777.258V287.405Z" fill="#E3EDF8"/>
<path d="M871.665 362.86C859.813 391.869 842.117 416.732 818.07 431.849C625.37 552.997 155.242 530.681 -9.36281 454.247C-33.8013 442.901 -72.9651 409.859 -86.874 362.86H871.665Z" fill="#B8CDEB"/>
<path d="M877.689 346.224C875.894 351.889 873.886 357.44 871.665 362.86C869.364 368.524 866.817 374.01 864.058 379.315C858.41 390.171 851.814 400.179 844.239 408.994C841.676 411.981 838.999 414.822 836.224 417.532C833.889 419.785 831.49 421.94 828.992 423.98C825.498 426.837 821.858 429.466 818.07 431.865C649.433 537.864 268.326 534.011 65.4547 480.171C36.5105 472.498 11.1904 463.781 -9.36279 454.247C-30.7649 444.305 -63.4802 417.728 -80.6051 379.691C-83.0376 374.303 -85.1435 368.688 -86.8739 362.86C-88.082 358.811 -89.0941 354.648 -89.8777 350.387L-91.9673 327.94C-91.9673 327.94 8.49677 324.202 90.2361 348.167C171.975 372.132 421.471 344.363 483.146 348.167C544.806 351.971 669.072 371.463 723.957 358.011C766.483 347.596 838.526 341.621 877.689 346.224Z" fill="#E8EFF9"/>
<path d="M772.507 304.987C772.507 304.987 767.283 320.006 778.858 328.952C790.432 337.915 813.777 325.998 825.498 328.952C848.141 334.65 846.884 306 844.729 289.626C842.166 270.166 825.498 264.779 833.465 250.005C840.974 236.063 814.316 221.648 799.623 229.288C777.927 240.569 796.636 254.249 777.258 269.138C765.896 277.855 776.605 298.555 772.507 304.987Z" fill="#F3F7FC"/>
<path d="M271.052 309.64C271.052 309.64 267.248 320.561 275.672 327.075C284.079 333.589 301.074 324.937 309.595 327.075C326.051 331.222 325.153 310.391 323.586 298.474C321.725 284.336 309.595 280.418 315.391 269.66C320.859 259.522 301.465 249.042 290.789 254.592C275.003 262.804 288.618 272.745 274.529 283.569C266.252 289.919 274.039 304.971 271.052 309.64Z" fill="#F3F7FC"/>
<path d="M297.825 269.66L298.364 344.641H300.176L299 270.28L297.825 269.66Z" fill="#B8CDEB"/>
<path d="M545.328 302.963C545.328 302.963 539.892 318.602 551.94 327.94C563.988 337.278 588.329 324.871 600.54 327.94C624.129 333.883 622.823 304.024 620.57 286.965C617.893 266.705 600.54 261.089 608.833 245.695C616.669 231.166 588.867 216.163 573.587 224.113C550.977 235.867 570.469 250.119 550.291 265.628C538.439 274.704 549.606 296.27 545.328 302.963Z" fill="#F3F7FC"/>
<path d="M583.692 245.695L584.459 353.114H587.055L585.374 246.56L583.692 245.695Z" fill="#B8CDEB"/>
<path d="M254.253 357.342C254.253 357.342 296.796 331.711 351.632 341.359C406.468 351.008 417.079 335.482 446.742 339.188C476.404 342.878 499.373 348.461 495.129 354.256C490.901 360.052 238.5 371.773 254.253 357.342Z" fill="#F1F6FC"/>
<path d="M3.76255 443.815C3.76255 443.815 48.7216 412.047 106.659 424.013C164.597 435.979 175.796 416.732 207.156 421.319C238.5 425.907 262.759 432.812 258.286 439.995C253.78 447.178 -12.9053 461.707 3.76255 443.815Z" fill="#F1F6FC"/>
<path d="M69.03 348.33C65.716 355.203 -20.9698 356.297 -89.8777 350.42C-89.894 350.322 -89.9267 350.208 -89.943 350.11C-90.0083 349.734 -90.0736 349.359 -90.1552 348.983C-90.1716 348.918 -90.1716 348.869 -90.1879 348.804C-90.2532 348.428 -90.3185 348.069 -90.3675 347.694C-90.4491 347.236 -90.5144 346.779 -90.5797 346.322C-90.645 345.865 -90.7103 345.408 -90.7756 344.951C-90.7756 344.918 -90.7919 344.886 -90.7919 344.853C-90.8572 344.429 -90.9062 344.004 -90.9715 343.563C-91.0368 343.106 -91.0858 342.633 -91.1511 342.176C-91.2 341.751 -91.249 341.311 -91.298 340.886C-91.298 340.837 -91.298 340.804 -91.3143 340.755C-91.3143 340.674 -91.3306 340.592 -91.347 340.511C-91.3959 340.135 -91.4286 339.76 -91.4612 339.384V339.351C-91.4612 339.286 -91.4776 339.221 -91.4776 339.139C-91.5102 338.764 -91.5429 338.388 -91.5755 338.013C-91.6082 337.686 -91.6245 337.376 -91.6571 337.05C-91.6735 336.756 -91.7061 336.462 -91.7224 336.168C-91.7388 335.874 -91.7714 335.58 -91.7714 335.287C-91.7877 334.944 -91.8204 334.617 -91.8204 334.274C-91.8367 333.948 -91.853 333.605 -91.8694 333.279C-91.8857 332.936 -91.902 332.609 -91.9183 332.266C-91.9347 331.875 -91.951 331.483 -91.951 331.091V331.009C-91.951 330.797 -91.9673 330.569 -91.9673 330.356C-91.9673 329.997 -91.9836 329.654 -91.9836 329.295C-91.9836 328.838 -91.9836 328.397 -91.9836 327.94C-91.9836 318.064 -90.7919 307.763 -88.1309 297.07C-82.5968 298.376 -76.9646 300.433 -71.2999 303.388C-18.9129 330.683 -4.28568 298.719 24.4627 310.228C53.2273 321.72 74.76 336.429 69.03 348.33Z" fill="#F1F6FC"/>
<path d="M844.239 408.994C841.676 411.981 838.999 414.822 836.224 417.532C833.889 419.785 831.49 421.94 828.992 423.98C819.295 427.131 804.162 429.172 780.539 428.29C732.397 426.511 659.277 432.453 662.999 422.446C662.999 422.446 661.873 406.235 685.952 404.619C710.015 403.003 726.259 389.567 741.931 395.167C757.603 400.766 760.411 409.027 790.073 404.619C814.659 400.946 838.754 403.77 844.239 408.994Z" fill="#F1F6FC"/>
</svg>
