<svg width="30" height="30" viewBox="0 0 30 30" fill="none" xmlns="http://www.w3.org/2000/svg">
<path d="M15.9766 28.9658C23.6897 28.4265 29.5052 21.7365 28.9659 14.0233C28.4265 6.31019 21.7365 0.494673 14.0234 1.03403C6.31024 1.57339 0.49473 8.26337 1.03409 15.9765C1.57344 23.6897 8.26342 29.5052 15.9766 28.9658Z" fill="url(#paint0_radial)"/>
<path d="M14.1196 11.501L14.1468 11.8904C14.1603 12.0828 14.2306 13.2196 14.2302 13.4775C14.2298 13.7353 14.2163 14.0033 14.1848 14.2771C14.1579 14.5506 14.1078 14.8211 14.0433 15.0835C13.9863 15.3222 13.892 15.5544 13.7687 15.7656L16.2289 15.5936L15.9339 11.3741L14.1196 11.501Z" fill="white"/>
<path d="M21.5979 10.4712C19.1012 6.82923 14.1244 5.90659 10.4778 8.40364C6.83125 10.9007 5.90435 15.8824 8.40566 19.524C8.40566 19.524 11.2506 20.3103 15.3509 20.0236C19.4513 19.7369 22.1636 18.562 22.1636 18.562C22.7974 17.2885 23.0799 15.8645 22.9803 14.4397C22.8856 13.0192 22.4076 11.6484 21.5979 10.4712ZM18.791 17.7343C18.7994 17.8535 18.7102 17.961 18.5865 17.9696L17.2808 18.0609C17.1617 18.0693 17.0542 17.9801 17.0455 17.8564C17.0452 17.8518 17.0452 17.8518 17.0452 17.8518L17.0186 17.4716L16.9824 16.9539L13.3173 17.2102L13.3797 18.1035C13.3801 18.1081 13.3801 18.1081 13.3801 18.1081C13.3841 18.2321 13.2946 18.3351 13.1709 18.3437L11.8744 18.4344C11.7553 18.4427 11.6478 18.3536 11.6391 18.2299L11.6388 18.2253L11.5026 16.2782C11.4924 16.1316 11.5226 16.0374 11.5836 15.9871C11.6317 15.9515 11.6897 15.9244 11.7486 15.9111C11.8167 15.8971 11.8786 15.8606 11.9303 15.8109C12.0333 15.7024 12.1257 15.5763 12.1946 15.4425C12.2918 15.2516 12.3699 15.0528 12.4246 14.8464C12.4871 14.621 12.5264 14.3927 12.5519 14.1653C12.5768 13.9288 12.5922 13.6883 12.5984 13.4485C12.6047 13.2086 12.5387 12.0669 12.5272 11.8375C12.5158 11.6081 12.5056 11.397 12.4919 11.2L12.4512 10.6182C12.4425 10.4945 12.459 10.4013 12.5053 10.3382C12.5557 10.2702 12.6258 10.2193 12.7024 10.1955C12.7971 10.1659 12.8923 10.1454 12.9934 10.1429C13.1037 10.1398 13.2182 10.1318 13.3373 10.1235L17.3552 9.84252C17.4744 9.83419 17.5819 9.92335 17.5905 10.047C17.5908 10.0516 17.5908 10.0516 17.5908 10.0516L17.6174 10.4319L17.9702 15.476L18.4054 15.4456C18.5245 15.4373 18.632 15.5264 18.6407 15.6501L18.7907 17.7298L18.791 17.7343Z" fill="white"/>
<path d="M8.80688 20.0626C11.6011 23.4812 16.6364 23.99 20.0553 21.2005C20.761 20.6263 21.3615 19.9305 21.8364 19.1515C21.8364 19.1515 18.6883 20.4812 15.3989 20.7112C12.1094 20.9412 8.80688 20.0626 8.80688 20.0626Z" fill="white"/>
<defs>
<radialGradient id="paint0_radial" cx="0" cy="0" r="1" gradientUnits="userSpaceOnUse" gradientTransform="translate(8.91774 8.83402) rotate(-4) scale(23.07)">
<stop stop-color="#FFB640"/>
<stop offset="1" stop-color="#FF9E00"/>
</radialGradient>
</defs>
</svg>
