<svg width="800" height="645" viewBox="0 0 800 645" fill="none" xmlns="http://www.w3.org/2000/svg">
<rect x="0.5" y="0.5" width="799" height="644" rx="6.5" fill="#ECF3FB" stroke="#DADADA"/>
<mask id="mask0" mask-type="alpha" maskUnits="userSpaceOnUse" x="1" y="1" width="798" height="643">
<rect x="1.5" y="1.5" width="797" height="642" rx="5.5" fill="#ECF3FB" stroke="#D7D8DB"/>
</mask>
<g mask="url(#mask0)">
<path d="M878.689 489.224C876.894 494.889 874.886 500.44 872.665 505.859C870.364 511.524 867.817 517.009 865.058 522.315C853.663 544.191 838.416 562.687 819.054 574.849C626.37 695.997 156.226 673.681 -8.36275 597.247C-29.7648 587.305 -62.4802 560.728 -79.6051 522.691C-82.0375 517.303 -84.1435 511.688 -85.8739 505.859C-86.0208 505.386 -86.1514 504.896 -86.2984 504.423C-86.3147 504.358 -86.331 504.309 -86.3473 504.243C-86.6249 503.247 -86.8861 502.252 -87.1473 501.256C-87.1473 501.223 -87.1636 501.191 -87.1799 501.158C-87.2942 500.717 -87.3921 500.293 -87.5064 499.852C-87.6207 499.362 -87.735 498.872 -87.8492 498.383C-87.8982 498.187 -87.9309 497.991 -87.9798 497.795C-87.9962 497.762 -87.9962 497.713 -88.0125 497.681C-88.0451 497.55 -88.0615 497.419 -88.0941 497.289C-88.0941 497.256 -88.1104 497.24 -88.1104 497.207C-88.1431 497.077 -88.1594 496.962 -88.1921 496.832C-88.2247 496.701 -88.241 496.587 -88.2737 496.456C-88.3553 496.032 -88.4533 495.607 -88.5349 495.183C-88.6165 494.759 -88.7145 494.334 -88.7961 493.893C-88.8287 493.714 -88.8614 493.55 -88.894 493.371C-88.9104 493.273 -88.9267 493.175 -88.943 493.077C-89.0083 492.702 -89.0736 492.326 -89.1552 491.951C-89.1716 491.885 -89.1716 491.836 -89.1879 491.771C-89.2532 491.396 -89.3185 491.036 -89.3675 490.661C-89.4491 490.204 -89.5144 489.747 -89.5797 489.29C-89.645 488.833 -89.7103 488.375 -89.7756 487.918C-89.7756 487.886 -89.7919 487.853 -89.7919 487.82C-89.8572 487.396 -89.9062 486.971 -89.9715 486.531C-90.0368 486.074 -90.0858 485.6 -90.1511 485.143C-90.2 484.719 -90.249 484.278 -90.298 483.853C-90.298 483.804 -90.298 483.772 -90.3143 483.723C-90.3143 483.641 -90.3306 483.56 -90.347 483.478C-90.3959 483.102 -90.4286 482.727 -90.4612 482.351V482.319C-90.4612 482.254 -90.4776 482.188 -90.4776 482.107C-90.5102 481.731 -90.5429 481.356 -90.5755 480.98C-90.6082 480.654 -90.6245 480.344 -90.6571 480.017C-90.6735 479.723 -90.7061 479.429 -90.7224 479.135C-90.7388 478.842 -90.7714 478.548 -90.7714 478.254C-90.7877 477.911 -90.8204 477.585 -90.8204 477.242C-90.8367 476.915 -90.853 476.572 -90.8694 476.246C-90.8857 475.903 -90.902 475.577 -90.9183 475.234C-90.9347 474.842 -90.951 474.45 -90.951 474.058V473.977C-90.951 473.765 -90.9673 473.536 -90.9673 473.324C-90.9673 472.965 -90.9836 472.622 -90.9836 472.263C-90.9836 471.806 -90.9836 471.365 -90.9836 470.908C-90.9836 454.86 -87.8166 437.703 -80.3887 419.647C-68.8306 391.568 -52.1628 372.598 -32.5401 358.494C-28.6874 355.718 -24.7204 353.139 -20.6392 350.723C-16.46 348.225 -12.1665 345.891 -7.79138 343.687C-4.57536 342.071 -1.29403 340.52 2.00362 339.018C4.06057 338.087 6.15018 337.173 8.23978 336.292C11.5538 334.871 14.9004 333.516 18.296 332.178C70.3891 311.657 128.865 299.169 168.127 245.133C195.733 207.144 231.55 179.784 271.023 163.002C273.505 161.941 275.986 160.945 278.5 159.965C282.386 158.463 286.304 157.059 290.238 155.753C292.23 155.084 294.238 154.447 296.246 153.843C296.311 153.827 296.376 153.794 296.442 153.778C298.433 153.174 300.441 152.603 302.449 152.048C326.316 145.485 351.016 142.497 375.667 143.069C428.609 144.277 481.306 161.908 524.877 195.831C525.694 196.452 526.494 197.088 527.294 197.741C528.502 198.704 529.693 199.635 530.901 200.549C530.967 200.598 531.032 200.647 531.097 200.696C532.926 202.1 534.754 203.439 536.583 204.745C536.762 204.875 536.942 204.99 537.121 205.12C539.015 206.475 540.909 207.765 542.802 209.022C544.01 209.822 545.218 210.589 546.41 211.356C546.671 211.52 546.916 211.683 547.177 211.83C548.353 212.564 549.545 213.283 550.736 214.001C551.487 214.442 552.238 214.883 552.973 215.307C553.12 215.389 553.283 215.487 553.43 215.568C555.928 217.005 558.409 218.343 560.907 219.617C668.211 274.714 767.614 192.632 862.136 301.96C871.588 312.898 878.836 328.276 883.718 346.332C894.819 387.373 893.741 442.029 878.689 489.224Z" fill="#ECF3FB"/>
<path d="M520.486 346.397V522.234L513.564 522.266L394.392 522.707V521.842L156.471 522.707V521.874L-71.41 522.707H-79.6051C-82.0376 517.32 -84.1435 511.704 -85.8739 505.876C-86.0209 505.402 -86.1515 504.913 -86.2984 504.439C-86.3147 504.374 -86.331 504.325 -86.3474 504.26C-86.6249 503.264 -86.8861 502.268 -87.1473 501.272C-87.1473 501.24 -87.1636 501.207 -87.1799 501.174C-87.2942 500.734 -87.3922 500.309 -87.5064 499.868C-87.6207 499.379 -87.735 498.889 -87.8493 498.399C-87.8982 498.203 -87.9309 498.007 -87.9799 497.811C-87.9962 497.779 -87.9962 497.73 -88.0125 497.697C-88.0452 497.566 -88.0615 497.436 -88.0941 497.305C-88.0941 497.273 -88.1105 497.256 -88.1105 497.224C-88.1431 497.093 -88.1594 496.979 -88.1921 496.848C-88.2247 496.718 -88.2411 496.603 -88.2737 496.473C-88.3553 496.048 -88.4533 495.624 -88.5349 495.199C-88.6165 494.775 -88.7145 494.35 -88.7961 493.91C-88.8288 493.746 -88.8614 493.583 -88.8941 493.404C-88.9104 493.306 -88.943 493.191 -88.9594 493.093C-89.0247 492.718 -89.09 492.342 -89.1716 491.967C-89.1879 491.902 -89.1879 491.853 -89.2042 491.787C-89.2695 491.412 -89.3348 491.053 -89.3838 490.677C-89.4654 490.22 -89.5307 489.763 -89.596 489.306C-89.6613 488.849 -89.7266 488.392 -89.7919 487.935C-89.7919 487.902 -89.8083 487.869 -89.8083 487.837C-89.8736 487.412 -89.9225 486.988 -89.9878 486.547C-90.0531 486.09 -90.1021 485.617 -90.1674 485.159C-90.2164 484.735 -90.2654 484.294 -90.3143 483.87C-90.3143 483.821 -90.3143 483.788 -90.3307 483.739C-90.3307 483.658 -90.347 483.576 -90.3633 483.494C-90.4123 483.119 -90.4449 482.743 -90.4776 482.368V482.335C-90.4776 482.27 -90.4939 482.205 -90.4939 482.123C-90.5266 481.748 -90.5592 481.372 -90.5919 480.997C-90.6245 480.67 -90.6408 480.36 -90.6735 480.033C-90.6898 479.74 -90.7225 479.446 -90.7388 479.152C-90.7551 478.858 -90.7878 478.564 -90.7878 478.27C-90.8041 477.927 -90.8367 477.601 -90.8367 477.258C-90.8531 476.932 -90.8694 476.589 -90.8857 476.262C-90.902 475.919 -90.9184 475.593 -90.9347 475.25C-90.951 474.858 -90.9673 474.467 -90.9673 474.075V473.993C-90.9673 473.781 -90.9837 473.552 -90.9837 473.34C-90.9837 472.981 -91 472.638 -91 472.279C-91 471.822 -91 471.381 -91 470.924C-91 461.047 -89.8083 450.746 -87.1473 440.053C-85.4985 433.393 -83.2619 426.585 -80.4051 419.647C-68.847 391.568 -52.1791 372.598 -32.5565 358.494V370.15H-20.6555V350.723C-16.4763 348.225 -12.1828 345.891 -7.80774 343.687C-4.59171 342.071 -1.31038 340.52 1.98727 339.018C4.04423 338.087 6.13382 337.173 8.22342 336.292C11.5374 334.871 14.884 333.516 18.2796 332.178V366.705H31.4213V358.918L46.93 358.983V346.364H50.0481V343.866H50.4562V346.364H62.4225H64.8222V343.866H65.2304V346.364H68.1199V371.456H86.5671V380.696H96.8193V375.357H106.337V354.07H111.071V344.144H111.789V354.07H123.168V335.459H124.278V354.07H131.804V353.808H131.787V351.441H131.804V349.205H131.787V345.483H131.804V343.099H131.787V339.377H131.804V337.01H131.787V333.288H131.804V330.725H131.787V327.003H131.804V323.738H131.787V320.016H131.804V317.567H134.04V314.792H134.399V317.583H151.002V314.792H151.361V317.583H154.398V337.043L156.536 337.059V337.043H156.52V333.321H156.536V330.757H156.52V327.035H156.536V324.472H156.52V320.75H156.536V320.734H176.665V320.75H180.126C180.305 320.848 180.485 320.946 180.665 321.044V342.283H195.39V370.166H207.274V318.595H209.854V314.988H210.327V318.595H219.714V314.988H220.171V318.595H233.46V314.988H233.933V318.595H242.308V314.988H242.781V318.595H246.226V366.738H259.367V358.951L274.876 359.016V346.397H277.994V343.899H278.402V346.397H290.369H292.768V343.899H293.177V346.397H296.066V371.488H314.513V380.728H324.765V375.357H334.283V354.07H339.033V344.144H339.752V354.07H351.13V335.459H352.24V354.07H359.766V353.808H359.75V351.441H359.766V349.205H359.75V345.483H359.766V343.099H359.75V339.377H359.766V337.01H359.75V333.288H359.766V330.725H359.75V327.003H359.766V323.738H359.75V320.016H359.766V317.567H362.003V314.792H362.362V317.583H378.964V314.792H379.324V317.583H382.36V337.043L384.466 337.059H384.499V337.043H384.482V333.321H384.499V330.757H384.482V327.035H384.499V324.472H384.482V320.75H384.499V320.734H404.627V320.75H408.088C408.268 320.848 408.447 320.946 408.627 321.044V342.283H433.327V370.166H445.228V318.595H447.807V314.988H448.28V318.595H457.667V314.988H458.141V318.595H471.429V314.988H471.886V318.595H484.163V366.738H497.304V358.951L512.813 359.016V346.397H515.931V343.899H516.339V346.397H520.486Z" fill="#D6E4F5"/>
<path d="M246.242 318.595H216.531V326.758H246.242V318.595Z" fill="#E3EDF8"/>
<path d="M246.242 331.149H216.531V339.312H246.242V331.149Z" fill="#E3EDF8"/>
<path d="M246.242 343.981H216.531V352.143H246.242V343.981Z" fill="#E3EDF8"/>
<path d="M246.242 357.008H216.531V365.171H246.242V357.008Z" fill="#E3EDF8"/>
<path d="M246.242 369.578H216.531V377.741H246.242V369.578Z" fill="#E3EDF8"/>
<path d="M373.659 317.567H359.799V322.53H373.659V317.567Z" fill="#E3EDF8"/>
<path d="M373.659 325.207H359.799V330.17H373.659V325.207Z" fill="#E3EDF8"/>
<path d="M373.659 332.994H359.799V337.957H373.659V332.994Z" fill="#E3EDF8"/>
<path d="M373.659 340.895H359.799V345.858H373.659V340.895Z" fill="#E3EDF8"/>
<path d="M373.659 348.535H359.799V353.498H373.659V348.535Z" fill="#E3EDF8"/>
<path d="M373.659 356.927H359.799V361.889H373.659V356.927Z" fill="#E3EDF8"/>
<path d="M373.659 364.567H359.799V369.529H373.659V364.567Z" fill="#E3EDF8"/>
<path d="M373.659 372.354H359.799V377.316H373.659V372.354Z" fill="#E3EDF8"/>
<path d="M373.659 380.255H359.799V385.218H373.659V380.255Z" fill="#E3EDF8"/>
<path d="M373.659 387.895H359.799V392.858H373.659V387.895Z" fill="#E3EDF8"/>
<path d="M399.305 320.816H384.45V325.778H399.305V320.816Z" fill="#E3EDF8"/>
<path d="M399.305 328.456H384.45V333.418H399.305V328.456Z" fill="#E3EDF8"/>
<path d="M399.305 336.243H384.45V341.205H399.305V336.243Z" fill="#E3EDF8"/>
<path d="M399.305 344.144H384.45V349.107H399.305V344.144Z" fill="#E3EDF8"/>
<path d="M399.305 351.784H384.45V356.747H399.305V351.784Z" fill="#E3EDF8"/>
<path d="M399.305 359.734H384.45V364.697H399.305V359.734Z" fill="#E3EDF8"/>
<path d="M399.305 367.358H384.45V372.321H399.305V367.358Z" fill="#E3EDF8"/>
<path d="M399.305 375.145H384.45V380.108H399.305V375.145Z" fill="#E3EDF8"/>
<path d="M399.305 383.063H384.45V388.026H399.305V383.063Z" fill="#E3EDF8"/>
<path d="M399.305 390.703H384.45V395.666H399.305V390.703Z" fill="#E3EDF8"/>
<path d="M399.305 399.453H384.45V404.416H399.305V399.453Z" fill="#E3EDF8"/>
<path d="M399.305 407.077H384.45V412.04H399.305V407.077Z" fill="#E3EDF8"/>
<path d="M399.305 414.864H384.45V419.827H399.305V414.864Z" fill="#E3EDF8"/>
<path d="M399.305 422.782H384.45V427.744H399.305V422.782Z" fill="#E3EDF8"/>
<path d="M399.305 430.405H384.45V435.368H399.305V430.405Z" fill="#E3EDF8"/>
<path d="M484.146 318.595H457.096V326.758H484.146V318.595Z" fill="#E3EDF8"/>
<path d="M484.146 331.149H457.096V339.312H484.146V331.149Z" fill="#E3EDF8"/>
<path d="M484.146 343.981H457.096V352.143H484.146V343.981Z" fill="#E3EDF8"/>
<path d="M484.146 357.008H457.096V365.171H484.146V357.008Z" fill="#E3EDF8"/>
<path d="M484.146 369.578H457.096V377.741H484.146V369.578Z" fill="#E3EDF8"/>
<path d="M146.545 317.567H131.689V322.53H146.545V317.567Z" fill="#E3EDF8"/>
<path d="M146.545 325.207H131.689V330.17H146.545V325.207Z" fill="#E3EDF8"/>
<path d="M146.545 332.994H131.689V337.957H146.545V332.994Z" fill="#E3EDF8"/>
<path d="M146.545 340.895H131.689V345.858H146.545V340.895Z" fill="#E3EDF8"/>
<path d="M146.545 348.535H131.689V353.498H146.545V348.535Z" fill="#E3EDF8"/>
<path d="M146.545 356.927H131.689V361.889H146.545V356.927Z" fill="#E3EDF8"/>
<path d="M146.545 364.567H131.689V369.529H146.545V364.567Z" fill="#E3EDF8"/>
<path d="M146.545 372.354H131.689V377.316H146.545V372.354Z" fill="#E3EDF8"/>
<path d="M146.545 380.255H131.689V385.218H146.545V380.255Z" fill="#E3EDF8"/>
<path d="M146.545 387.895H131.689V392.858H146.545V387.895Z" fill="#E3EDF8"/>
<path d="M173.726 320.816H156.846V325.778H173.726V320.816Z" fill="#E3EDF8"/>
<path d="M173.726 328.456H156.846V333.418H173.726V328.456Z" fill="#E3EDF8"/>
<path d="M173.726 336.243H156.846V341.205H173.726V336.243Z" fill="#E3EDF8"/>
<path d="M173.726 344.144H156.846V349.107H173.726V344.144Z" fill="#E3EDF8"/>
<path d="M173.726 351.784H156.846V356.747H173.726V351.784Z" fill="#E3EDF8"/>
<path d="M173.726 359.734H156.846V364.697H173.726V359.734Z" fill="#E3EDF8"/>
<path d="M173.726 367.358H156.846V372.321H173.726V367.358Z" fill="#E3EDF8"/>
<path d="M173.726 375.145H156.846V380.108H173.726V375.145Z" fill="#E3EDF8"/>
<path d="M173.726 383.063H156.846V388.026H173.726V383.063Z" fill="#E3EDF8"/>
<path d="M173.726 390.703H156.846V395.666H173.726V390.703Z" fill="#E3EDF8"/>
<path d="M173.726 399.453H156.846V404.416H173.726V399.453Z" fill="#E3EDF8"/>
<path d="M173.726 407.077H156.846V412.04H173.726V407.077Z" fill="#E3EDF8"/>
<path d="M173.726 414.864H156.846V419.827H173.726V414.864Z" fill="#E3EDF8"/>
<path d="M173.726 422.782H156.846V427.744H173.726V422.782Z" fill="#E3EDF8"/>
<path d="M173.726 430.405H156.846V435.368H173.726V430.405Z" fill="#E3EDF8"/>
<path d="M883.734 346.397C896.157 392.286 893.3 455.35 872.665 505.86C870.364 511.524 867.817 517.01 865.058 522.315L760.986 522.691V521.858L533.105 522.691H513.548V375.129H533.073V342.283H572.008V370.166H583.909V318.595H586.488V314.988H586.961V318.595H596.348V314.988H596.822V318.595H610.11V314.988H610.584V318.595H618.942V314.988H619.415V318.595H622.844V366.738H635.985V358.951L651.494 359.016V346.397H654.612V343.899H655.02V346.397H666.987H669.386V343.899H669.794V346.397H672.684V371.488H691.131V380.728H701.383V375.357H710.901V354.07H715.635V344.144H716.353V354.07H727.732V335.459H728.842V354.07H736.368V353.808H736.352V351.441H736.368V349.205H736.352V345.483H736.368V343.099H736.352V339.377H736.368V337.01H736.352V333.288H736.368V330.725H736.352V327.003H736.368V323.738H736.352V320.016H736.368V317.567H738.604V314.792H738.964V317.583H755.566V314.792H755.925V317.583H758.962V337.043L761.1 337.059V337.043H761.084V333.321H761.1V330.757H761.084V327.035H761.1V324.472H761.084V320.75H761.1V320.734H781.229V320.75H784.69C784.869 320.848 785.049 320.946 785.229 321.044V342.283H799.954V370.166H811.838V318.595H814.418V314.988H814.891V318.595H824.278V314.988H824.735V318.595H838.024V314.988H838.497V318.595H846.856V314.988H847.329V318.595H850.774V366.738H863.915V358.951L879.424 359.016V346.397H882.542V343.899H882.95V346.397H883.734Z" fill="#D6E4F5"/>
<path d="M612.788 318.595H583.909V326.758H612.788V318.595Z" fill="#E3EDF8"/>
<path d="M612.788 330.888H583.909V339.051H612.788V330.888Z" fill="#E3EDF8"/>
<path d="M612.788 343.703H583.909V351.866H612.788V343.703Z" fill="#E3EDF8"/>
<path d="M612.788 356.731H583.909V364.893H612.788V356.731Z" fill="#E3EDF8"/>
<path d="M612.788 369.301H583.909V377.463H612.788V369.301Z" fill="#E3EDF8"/>
<path d="M751.077 317.567H736.221V322.53H751.077V317.567Z" fill="#E3EDF8"/>
<path d="M751.077 325.207H736.221V330.17H751.077V325.207Z" fill="#E3EDF8"/>
<path d="M751.077 332.994H736.221V337.957H751.077V332.994Z" fill="#E3EDF8"/>
<path d="M751.077 340.895H736.221V345.858H751.077V340.895Z" fill="#E3EDF8"/>
<path d="M751.077 348.535H736.221V353.498H751.077V348.535Z" fill="#E3EDF8"/>
<path d="M751.077 356.927H736.221V361.889H751.077V356.927Z" fill="#E3EDF8"/>
<path d="M751.077 364.567H736.221V369.529H751.077V364.567Z" fill="#E3EDF8"/>
<path d="M751.077 372.354H736.221V377.316H751.077V372.354Z" fill="#E3EDF8"/>
<path d="M751.077 380.255H736.221V385.218H751.077V380.255Z" fill="#E3EDF8"/>
<path d="M751.077 387.895H736.221V392.858H751.077V387.895Z" fill="#E3EDF8"/>
<path d="M778.258 320.816H761.378V325.778H778.258V320.816Z" fill="#E3EDF8"/>
<path d="M778.258 328.456H761.378V333.418H778.258V328.456Z" fill="#E3EDF8"/>
<path d="M778.258 336.243H761.378V341.205H778.258V336.243Z" fill="#E3EDF8"/>
<path d="M778.258 344.144H761.378V349.107H778.258V344.144Z" fill="#E3EDF8"/>
<path d="M778.258 351.784H761.378V356.747H778.258V351.784Z" fill="#E3EDF8"/>
<path d="M778.258 359.734H761.378V364.697H778.258V359.734Z" fill="#E3EDF8"/>
<path d="M778.258 367.358H761.378V372.321H778.258V367.358Z" fill="#E3EDF8"/>
<path d="M778.258 375.145H761.378V380.108H778.258V375.145Z" fill="#E3EDF8"/>
<path d="M778.258 383.063H761.378V388.026H778.258V383.063Z" fill="#E3EDF8"/>
<path d="M778.258 390.703H761.378V395.666H778.258V390.703Z" fill="#E3EDF8"/>
<path d="M778.258 399.453H761.378V404.416H778.258V399.453Z" fill="#E3EDF8"/>
<path d="M778.258 407.077H761.378V412.04H778.258V407.077Z" fill="#E3EDF8"/>
<path d="M778.258 414.864H761.378V419.827H778.258V414.864Z" fill="#E3EDF8"/>
<path d="M778.258 422.782H761.378V427.744H778.258V422.782Z" fill="#E3EDF8"/>
<path d="M778.258 430.405H761.378V435.368H778.258V430.405Z" fill="#E3EDF8"/>
<path d="M872.665 505.859C860.813 534.869 843.117 559.732 819.07 574.849C626.37 695.997 156.242 673.681 -8.36279 597.247C-32.8013 585.901 -71.965 552.859 -85.8739 505.859H872.665Z" fill="#B8CDEB"/>
<path d="M878.689 489.224C876.894 494.889 874.886 500.44 872.665 505.86C870.364 511.524 867.817 517.01 865.058 522.315C859.41 533.171 852.814 543.179 845.239 551.994C842.676 554.982 839.999 557.822 837.224 560.532C834.889 562.785 832.49 564.94 829.992 566.98C826.498 569.837 822.858 572.466 819.07 574.865C650.433 680.864 269.326 677.011 66.4547 623.171C37.5105 615.498 12.1904 606.781 -8.3628 597.247C-29.7649 587.305 -62.4802 560.728 -79.6052 522.691C-82.0376 517.303 -84.1435 511.688 -85.874 505.86C-87.082 501.811 -88.0942 497.648 -88.8778 493.387L-90.9674 470.94C-90.9674 470.94 9.49676 467.202 91.2361 491.167C172.975 515.132 422.471 487.363 484.146 491.167C545.806 494.971 670.072 514.463 724.957 501.011C767.483 490.596 839.526 484.621 878.689 489.224Z" fill="#E8EFF9"/>
<path d="M773.507 447.987C773.507 447.987 768.283 463.006 779.858 471.952C791.432 480.915 814.777 468.998 826.498 471.952C849.141 477.65 847.884 449 845.729 432.626C843.166 413.166 826.498 407.779 834.465 393.005C841.974 379.063 815.316 364.648 800.623 372.288C778.927 383.569 797.636 397.249 778.258 412.138C766.896 420.855 777.605 441.555 773.507 447.987Z" fill="#F3F7FC"/>
<path d="M272.052 452.64C272.052 452.64 268.248 463.561 276.672 470.075C285.079 476.589 302.074 467.937 310.595 470.075C327.051 474.222 326.153 453.391 324.586 441.474C322.725 427.336 310.595 423.418 316.391 412.66C321.86 402.522 302.465 392.042 291.789 397.592C276.003 405.804 289.618 415.745 275.529 426.569C267.252 432.919 275.039 447.971 272.052 452.64Z" fill="#F3F7FC"/>
<path d="M298.825 412.66L299.364 487.641H301.176L300 413.28L298.825 412.66Z" fill="#B8CDEB"/>
<path d="M546.328 445.963C546.328 445.963 540.892 461.602 552.94 470.94C564.988 480.278 589.329 467.871 601.54 470.94C625.129 476.883 623.823 447.024 621.57 429.965C618.893 409.705 601.54 404.089 609.833 388.695C617.669 374.166 589.867 359.163 574.587 367.113C551.977 378.867 571.469 393.119 551.291 408.628C539.439 417.704 550.606 439.27 546.328 445.963Z" fill="#F3F7FC"/>
<path d="M584.692 388.695L585.46 496.114H588.055L586.374 389.56L584.692 388.695Z" fill="#B8CDEB"/>
<path d="M255.253 500.342C255.253 500.342 297.796 474.711 352.632 484.359C407.468 494.007 418.079 478.482 447.742 482.188C477.404 485.878 500.374 491.461 496.129 497.256C491.901 503.052 239.5 514.773 255.253 500.342Z" fill="#F1F6FC"/>
<path d="M4.76253 586.815C4.76253 586.815 49.7216 555.047 107.659 567.013C165.597 578.979 176.796 559.732 208.156 564.319C239.5 568.907 263.759 575.812 259.286 582.995C254.78 590.178 -11.9053 604.707 4.76253 586.815Z" fill="#F1F6FC"/>
<path d="M70.03 491.33C66.716 498.203 -19.9698 499.297 -88.8777 493.42C-88.894 493.322 -88.9267 493.208 -88.943 493.11C-89.0083 492.734 -89.0736 492.359 -89.1552 491.983C-89.1716 491.918 -89.1716 491.869 -89.1879 491.804C-89.2532 491.428 -89.3185 491.069 -89.3675 490.694C-89.4491 490.236 -89.5144 489.779 -89.5797 489.322C-89.645 488.865 -89.7103 488.408 -89.7756 487.951C-89.7756 487.918 -89.7919 487.886 -89.7919 487.853C-89.8572 487.429 -89.9062 487.004 -89.9715 486.563C-90.0368 486.106 -90.0858 485.633 -90.1511 485.176C-90.2 484.751 -90.249 484.31 -90.298 483.886C-90.298 483.837 -90.298 483.804 -90.3143 483.755C-90.3143 483.674 -90.3306 483.592 -90.347 483.511C-90.3959 483.135 -90.4286 482.76 -90.4612 482.384V482.351C-90.4612 482.286 -90.4776 482.221 -90.4776 482.139C-90.5102 481.764 -90.5429 481.388 -90.5755 481.013C-90.6082 480.686 -90.6245 480.376 -90.6571 480.05C-90.6735 479.756 -90.7061 479.462 -90.7224 479.168C-90.7388 478.874 -90.7714 478.58 -90.7714 478.287C-90.7877 477.944 -90.8204 477.617 -90.8204 477.274C-90.8367 476.948 -90.853 476.605 -90.8694 476.279C-90.8857 475.936 -90.902 475.609 -90.9183 475.266C-90.9347 474.875 -90.951 474.483 -90.951 474.091V474.009C-90.951 473.797 -90.9673 473.569 -90.9673 473.356C-90.9673 472.997 -90.9836 472.654 -90.9836 472.295C-90.9836 471.838 -90.9836 471.397 -90.9836 470.94C-90.9836 461.064 -89.7919 450.763 -87.1309 440.07C-81.5968 441.376 -75.9646 443.433 -70.2999 446.387C-17.9129 473.683 -3.28568 441.719 25.4627 453.228C54.2273 464.72 75.76 479.429 70.03 491.33Z" fill="#F1F6FC"/>
<path d="M845.239 551.994C842.676 554.981 839.999 557.822 837.224 560.532C834.889 562.785 832.49 564.94 829.992 566.98C820.295 570.131 805.162 572.172 781.539 571.29C733.397 569.511 660.277 575.453 663.999 565.446C663.999 565.446 662.873 549.235 686.952 547.619C711.015 546.003 727.259 532.567 742.931 538.167C758.603 543.766 761.411 552.027 791.073 547.619C815.659 543.946 839.754 546.77 845.239 551.994Z" fill="#F1F6FC"/>
</g>
</svg>
