<svg width="375" height="772" viewBox="0 0 375 772" fill="none" xmlns="http://www.w3.org/2000/svg">
<path opacity="0.5" d="M417.427 440.036L208.895 292.524L413.685 554.999L409.944 652.616L186.107 299.802L360.285 772H233.758L178.488 301.503L94.3065 769.279L-45.1453 767.578L163.216 296.095L-45.1453 503.3L-47.8663 438.336L151.448 284.939L-47.4922 358.44L-62.5938 318.237L144.951 269.939L-66.9814 256.198V220.859L145.394 253.715L-109.599 164.398L-133 89.6722L152.638 239.09L-81.811 -79.7108L-43.1046 -138.178L164.985 228.58L84.1708 -190.626L150.087 -196L180.563 223.954L312.328 -193.279L382.054 -196L196.617 226.097L448.922 -0.529312L478.173 18.9599L210.46 234.566L478.173 110.59L486.949 144.365L219.643 247.933L486.949 219.941L501.54 241.845L222.568 263.885L436.338 283.306L426.746 321.332L218.793 279.667L401.577 387.827L417.427 440.036Z" fill="url(#paint0_radial)" fill-opacity="0.6"/>
<path opacity="0.8" d="M144.271 265.96L110.973 276.606C140.394 275.143 169.815 273.579 199.27 272.762L194.508 270.279L380.863 257.695L194.066 258.137L380.863 142.188L188.045 247.559L349.435 -4.23668L177.808 240.995L204.235 -33.4195L165.699 239.974L56.7226 -38.6575L154.475 244.702L-38.819 92.2912L146.754 254.089L-37.1864 221.709L144.271 265.96Z" fill="url(#paint1_radial)" fill-opacity="0.7"/>
<defs>
<radialGradient id="paint0_radial" cx="0" cy="0" r="1" gradientUnits="userSpaceOnUse" gradientTransform="translate(184.278 288) scale(409.22)">
<stop stop-color="#C5DCFE"/>
<stop offset="1" stop-color="#C5DCFE" stop-opacity="0"/>
</radialGradient>
<radialGradient id="paint1_radial" cx="0" cy="0" r="1" gradientUnits="userSpaceOnUse" gradientTransform="translate(171.018 258.979) scale(210.52)">
<stop stop-color="#C5DCFE"/>
<stop offset="1" stop-color="#EBF3FF" stop-opacity="0"/>
</radialGradient>
</defs>
</svg>
