<svg width="34" height="35" viewBox="0 0 34 35" fill="none" xmlns="http://www.w3.org/2000/svg">
<g filter="url(#filter0_ii)">
<rect y="0.673828" width="33.3261" height="33.3261" rx="11" fill="#F60112"/>
</g>
<g filter="url(#filter1_i)">
<path d="M18.7143 23.5518C18.575 23.6214 18.3138 23.6824 17.9308 23.7346C17.5651 23.7694 17.2082 23.7868 16.86 23.7868C16.1461 23.7868 15.6063 23.6737 15.2407 23.4473C14.875 23.2035 14.6922 22.6986 14.6922 21.9325V19.0595H10.7484C10.6266 18.868 10.5221 18.6155 10.435 18.3021C10.3654 17.9887 10.3306 17.6753 10.3306 17.3619C10.3306 16.7351 10.4698 16.2824 10.7484 16.0038C11.027 15.7078 11.4014 15.5598 11.8715 15.5598H14.6922V11.172C14.8663 11.1198 15.1275 11.0675 15.4757 11.0153C15.8414 10.9457 16.1983 10.9108 16.5466 10.9108C17.243 10.9108 17.7741 11.0327 18.1397 11.2765C18.5228 11.5203 18.7143 12.0339 18.7143 12.8174V15.5598H22.5797C22.6668 15.7687 22.7538 16.0299 22.8409 16.3433C22.9454 16.6393 22.9976 16.9527 22.9976 17.2835C22.9976 17.893 22.8583 18.3457 22.5797 18.6417C22.3011 18.9203 21.9355 19.0595 21.4828 19.0595H18.7143V23.5518Z" fill="#F9F9FA"/>
</g>
<defs>
<filter id="filter0_ii" x="0" y="-0.777152" width="33.3261" height="36.2281" filterUnits="userSpaceOnUse" color-interpolation-filters="sRGB">
<feFlood flood-opacity="0" result="BackgroundImageFix"/>
<feBlend mode="normal" in="SourceGraphic" in2="BackgroundImageFix" result="shape"/>
<feColorMatrix in="SourceAlpha" type="matrix" values="0 0 0 0 0 0 0 0 0 0 0 0 0 0 0 0 0 0 127 0" result="hardAlpha"/>
<feOffset dy="-1.45098"/>
<feGaussianBlur stdDeviation="1.81373"/>
<feComposite in2="hardAlpha" operator="arithmetic" k2="-1" k3="1"/>
<feColorMatrix type="matrix" values="0 0 0 0 0.679167 0 0 0 0 0.0707465 0 0 0 0 0.0707465 0 0 0 0.39 0"/>
<feBlend mode="normal" in2="shape" result="effect1_innerShadow"/>
<feColorMatrix in="SourceAlpha" type="matrix" values="0 0 0 0 0 0 0 0 0 0 0 0 0 0 0 0 0 0 127 0" result="hardAlpha"/>
<feOffset dy="1.45098"/>
<feGaussianBlur stdDeviation="1.45098"/>
<feComposite in2="hardAlpha" operator="arithmetic" k2="-1" k3="1"/>
<feColorMatrix type="matrix" values="0 0 0 0 1 0 0 0 0 0.683333 0 0 0 0 0.683333 0 0 0 1 0"/>
<feBlend mode="normal" in2="effect1_innerShadow" result="effect2_innerShadow"/>
</filter>
<filter id="filter1_i" x="10.3306" y="10.9109" width="13.0298" height="13.2387" filterUnits="userSpaceOnUse" color-interpolation-filters="sRGB">
<feFlood flood-opacity="0" result="BackgroundImageFix"/>
<feBlend mode="normal" in="SourceGraphic" in2="BackgroundImageFix" result="shape"/>
<feColorMatrix in="SourceAlpha" type="matrix" values="0 0 0 0 0 0 0 0 0 0 0 0 0 0 0 0 0 0 127 0" result="hardAlpha"/>
<feOffset dx="0.362745" dy="0.362745"/>
<feGaussianBlur stdDeviation="0.362745"/>
<feComposite in2="hardAlpha" operator="arithmetic" k2="-1" k3="1"/>
<feColorMatrix type="matrix" values="0 0 0 0 0 0 0 0 0 0 0 0 0 0 0 0 0 0 0.16 0"/>
<feBlend mode="normal" in2="shape" result="effect1_innerShadow"/>
</filter>
</defs>
</svg>
