<svg width="281" height="204" viewBox="0 0 281 204" fill="none" xmlns="http://www.w3.org/2000/svg">
<path d="M119.714 113.913L119.403 167.992L191.184 203.781L191.496 149.701L119.714 113.913Z" fill="#12A8C4"/>
<path d="M262.819 114.098L191.183 149.516L119.403 113.723L191.183 77.9566L262.819 114.098Z" fill="#9EF2F9"/>
<path d="M245.633 113.748L191.182 140.879L136.731 113.727L191.182 86.5956L245.633 113.748Z" fill="#F7FBFD"/>
<path opacity="0.9852" d="M241.292 113.748L191.182 138.716L141.072 113.728L191.182 88.76L241.292 113.748Z" fill="#59F3FF"/>
<path d="M262.644 114.098L263 168.012L191.218 203.781L190.95 149.518L262.644 114.098Z" fill="#006496"/>
<path d="M123.606 112.867C123.606 112.867 123.754 113.519 129.991 117.209C132.891 118.925 186.776 147.116 189.415 147.116C192.055 147.116 256.142 114.422 256.896 113.295C257.65 112.168 190.954 77.9566 190.954 77.9566L262.871 114.02C262.871 114.02 191.513 149.519 191.513 150.646C191.513 151.774 191.064 203.999 191.064 203.999C191.064 203.999 190.207 151.107 188.322 150.731C186.437 150.356 119.407 113.737 119.407 113.737L188.355 79.2184L123.606 112.867Z" fill="#F7FBFD"/>
<path d="M119.416 113.728L119.403 133.407L191.184 169.196V149.802L119.416 113.728Z" fill="#FFB91D"/>
<path d="M262.996 114.012V133.407L191.214 169.196V149.802L262.996 114.012Z" fill="#B34800"/>
<path d="M189.173 148.774L190.176 168.645L191.35 169.252L191.496 149.701L189.173 148.774Z" fill="#FFE063"/>
<path d="M120.113 114.085L120.537 133.957L119.403 133.407L119.416 113.728L120.113 114.085Z" fill="#FFE063"/>
<path d="M191.182 88.76V138.716L141.072 113.728L191.182 88.76Z" fill="#12A8C4"/>
<path opacity="0.5" d="M262.515 114.243L262.323 133.801L262.995 133.482L262.891 114.06L262.515 114.243Z" fill="#FFB91D"/>
<path d="M116.852 180.637L91.3238 154.165L14.5914 177.627L39.7432 203.074L118.651 182.783L116.852 180.637ZM40.206 203.115L40.0322 202.933L40.206 203.115Z" fill="#12A8C4"/>
<path d="M14.5914 177.627C14.5914 177.627 35.4231 190.854 37.8358 191.131C40.2485 191.408 86.9487 179.587 88.781 176.561C90.6134 173.535 88.9674 158.284 88.9674 158.284L14.5914 177.627Z" fill="#007AB8"/>
<path d="M14.5914 177.627C14.5914 177.627 34.5963 188.641 36.3549 188.683C38.1135 188.726 83.9656 175.568 85.5303 174.51C87.095 173.451 89.973 154.443 89.973 154.443L14.5914 177.627Z" fill="#51E0FA"/>
<path d="M118.527 78.9055L91.3238 154.165L14.5914 177.627L41.7945 102.367L118.527 78.9055Z" fill="#BE8F27"/>
<path d="M118.528 78.9117L91.3251 154.167L14.5914 177.627L41.7957 102.37L118.528 78.9117Z" fill="#9EF2F9"/>
<path d="M118.527 78.9055L145.57 106.689L118.304 181.85L91.324 154.165L118.527 78.9055Z" fill="#006496"/>
<path d="M92.5134 154.603C92.5134 154.603 110.618 155.813 112.635 154.326C114.65 152.84 131.169 106.31 130.802 103.23C130.436 100.152 118.803 80.7968 118.803 80.7968L92.5134 154.603Z" fill="#004182"/>
<path d="M118.598 79.2371C118.598 79.2371 128.676 99.6831 128.633 101.436C128.591 103.189 112.298 149.933 111.162 151.441C110.027 152.948 90.8412 154.902 90.8412 154.902L118.598 79.2371Z" fill="#0094BD"/>
<path d="M41.7958 102.37C41.7958 102.37 113.754 81.2644 113.988 82.5984C114.222 83.9325 90.4609 151.675 88.5497 153.489C86.6398 155.304 28.1224 171.958 24.8354 172.71C17.766 174.328 17.2081 173.956 17.2081 173.956L40.7877 105.07L14.5928 177.626C14.5928 177.626 87.3452 159.308 88.9687 158.283C89.8793 157.708 114.892 179.382 115.346 179.763C115.638 180.007 118.543 182.764 118.527 182.731C118.138 182.318 115.244 178.724 114.857 178.314C103.236 165.978 92.8536 154.957 92.5134 154.601C91.7329 153.786 118.528 78.9092 118.528 78.9092L41.7958 102.37Z" fill="#F7FBFD"/>
<path d="M85.5303 174.51C86.7235 173.703 88.6785 162.468 89.5403 157.173L89.2864 155.523C89.2864 155.523 85.1538 171.869 83.7917 173.591C82.4309 175.313 39.4843 186.565 36.8465 186.501C34.2086 186.438 14.5902 177.626 14.5902 177.626C14.5902 177.626 34.5951 188.64 36.3537 188.682C38.1122 188.724 83.9656 175.568 85.5303 174.51Z" fill="#F7FBFD"/>
<path opacity="0.2" d="M126.897 100.945C127.693 104.472 112.62 145.774 110.337 149.228C108.054 152.681 92.5134 154.603 92.5134 154.603L92.6322 154.71C97.4227 154.182 110.241 152.664 111.164 151.441C112.299 149.933 128.592 103.189 128.635 101.436C128.666 100.132 123.095 88.4795 120.242 82.6009C122.857 89.3859 126.403 98.7542 126.897 100.945Z" fill="#A8A7D7"/>
<path opacity="0.5" d="M142.305 103.731L142.159 104.123L142.305 103.731Z" fill="#FFB91D"/>
<path d="M20.1399 168.916C20.1399 168.916 23.6721 175.014 28.4275 173.074C33.183 171.134 45.2141 154.26 45.2141 154.26C45.2141 154.26 43.9296 170.95 45.0916 171.565C46.2535 172.18 56.5787 158.931 56.5787 158.931C56.5787 158.931 63.4266 167.896 64.6174 167.338C65.8081 166.78 65.5792 133.477 66.1883 132.612C66.7975 131.747 70.2409 129.335 70.85 128.47C71.4591 127.605 104.977 128.992 105.162 127.384C105.349 125.774 98.5671 120.185 98.8823 119.312C99.1975 118.44 111.031 109.775 110.171 108.874C109.309 107.974 94.0281 107.022 95.0687 106.606C96.1093 106.191 115.051 95.6435 114.467 89.3211C113.883 82.9999 106.286 80.7644 104.78 82.1957C103.274 83.627 78.6836 108.709 78.6836 108.709C78.6836 108.709 56.1146 129.292 55.3692 129.713C54.6237 130.136 25.8659 157.171 25.4144 157.6C24.9629 158.03 20.1399 168.916 20.1399 168.916Z" fill="#1B9DBF" fill-opacity="0.3"/>
<path d="M47.852 141.057C47.852 141.057 44.535 169.13 44.9027 170.758C45.2705 172.388 55.917 156.338 55.917 156.338C55.917 156.338 62.6862 166.322 63.4992 166.342C64.311 166.362 62.9364 122.177 63.2628 121.274C63.588 120.371 47.852 141.057 47.852 141.057Z" fill="#FFBF1C"/>
<path d="M79.613 110.88C79.613 110.88 107.902 108.924 109.516 109.368C111.131 109.812 94.5384 119.643 94.5384 119.643C94.5384 119.643 104.219 126.862 104.199 127.671C104.179 128.48 59.9708 124.993 59.0502 125.274C58.1297 125.556 79.613 110.88 79.613 110.88Z" fill="#FFBF1C"/>
<path d="M60.1809 128.904C60.1809 128.904 1.45588 122.02 0.070025 136.077C-1.31458 150.133 18.0136 173.554 26.7152 170.892C35.4169 168.231 60.1809 128.904 60.1809 128.904Z" fill="#FFBF1C"/>
<path d="M56.9802 131.437C56.9802 131.437 14.4652 153.927 16.9843 162.326C19.1981 169.707 27.3119 169.962 29.1393 168.08C45.0491 151.698 56.9802 131.437 56.9802 131.437Z" fill="#D65600"/>
<path d="M52.4037 130.055C52.4037 130.055 21.9124 129.52 25.5196 137.389C29.1068 145.216 52.4037 130.055 52.4037 130.055Z" fill="#F7751E"/>
<path d="M66.6287 122.778C66.6287 122.778 62.5474 63.9777 76.6974 63.2721C90.8487 62.5664 113.391 82.9351 110.307 91.4705C107.223 100.007 66.6287 122.778 66.6287 122.778Z" fill="#FFBF1C"/>
<path d="M69.3203 119.713C69.3203 119.713 93.8943 78.4603 102.191 81.3716C109.48 83.93 109.346 92.0203 107.374 93.7496C90.1945 108.804 69.3203 119.713 69.3203 119.713Z" fill="#D65600"/>
<path d="M68.1547 115.09C68.1547 115.09 69.0815 84.7055 76.7937 88.674C84.4635 92.6213 68.1547 115.09 68.1547 115.09Z" fill="#F7751E"/>
<path d="M70.351 119.038C72.1359 120.905 72.0646 123.887 70.1909 125.666L62.7201 132.764C60.8476 134.543 57.8558 134.472 56.0709 132.604L50.6851 126.971C48.9003 125.105 48.9716 122.123 50.8452 120.343L58.3161 113.246C60.1885 111.466 63.1803 111.537 64.9652 113.405L70.351 119.038Z" fill="#FFBF1C"/>
<path d="M61.1977 111.973C62.1746 112.959 63.1151 114.002 63.638 115.278C64.3584 117.038 64.1933 119.029 63.8231 120.895C63.1889 124.089 61.9669 127.198 59.9982 129.797C59.0489 131.051 57.9144 132.174 56.6449 133.107C58.4473 134.462 61.0364 134.365 62.7212 132.764L70.192 125.666C72.0644 123.887 72.1357 120.905 70.3521 119.038L64.9663 113.405C63.9557 112.35 62.5598 111.869 61.1977 111.973Z" fill="#F7751E"/>
<path opacity="0.3" d="M145.57 106.689L118.528 78.9117C118.528 78.9117 140.938 107.806 141.425 108.367C141.911 108.928 118.304 181.85 118.304 181.85L145.57 106.689Z" fill="#A8A7D7"/>
<g filter="url(#filter0_dd)">
<path d="M191.865 57.0835C194.082 56.9339 196.108 57.1235 197.943 57.6523C199.828 58.1042 200.99 59.0433 201.432 60.4695C201.651 61.4807 201.624 62.5783 201.351 63.7623C201.078 64.9462 200.654 66.196 200.079 67.5116L177.568 122.113C175.477 122.235 173.648 122.036 172.079 121.516C170.56 120.919 169.58 119.907 169.139 118.481C168.92 117.469 168.771 116.476 168.692 115.501C168.662 114.448 168.921 113.201 169.469 111.759L191.865 57.0835ZM177.403 75.9975C178.43 80.7376 177.809 84.7429 175.54 88.0135C173.271 91.284 169.893 93.4054 165.406 94.3776C160.855 95.3635 156.87 94.8373 153.451 92.799C150.095 90.7471 147.904 87.3511 146.877 82.6111C145.864 77.9342 146.46 73.9674 148.666 70.7105C150.935 67.4399 154.344 65.3117 158.895 64.3258C163.382 63.3536 167.335 63.8867 170.754 65.9249C174.173 67.9632 176.39 71.3207 177.403 75.9975ZM158.348 80.1259C158.759 82.0219 159.414 83.3686 160.315 84.166C161.265 84.8864 162.277 85.1303 163.352 84.8975C164.426 84.6648 165.215 84.0307 165.719 82.9952C166.272 81.8829 166.343 80.3788 165.932 78.4827C165.535 76.6499 164.861 75.3733 163.911 74.6528C163.024 73.9186 162.044 73.6679 160.969 73.9007C159.895 74.1334 159.074 74.7744 158.508 75.8235C158.004 76.8589 157.951 78.293 158.348 80.1259ZM223.43 96.4955C224.457 101.236 223.836 105.241 221.567 108.511C219.298 111.782 215.92 113.903 211.433 114.876C206.882 115.861 202.897 115.335 199.478 113.297C196.122 111.245 193.931 107.849 192.904 103.109C191.891 98.4322 192.487 94.4654 194.693 91.2085C196.962 87.9379 200.371 85.8096 204.922 84.8238C209.409 83.8516 213.362 84.3846 216.781 86.4229C220.2 88.4611 222.417 91.8187 223.43 96.4955ZM204.375 100.624C204.786 102.52 205.441 103.867 206.342 104.664C207.292 105.384 208.304 105.628 209.379 105.396C210.453 105.163 211.242 104.529 211.746 103.493C212.299 102.381 212.37 100.877 211.959 98.9807C211.562 97.1479 210.888 95.8713 209.938 95.1508C209.051 94.4166 208.071 94.1659 206.996 94.3986C205.922 94.6314 205.101 95.2724 204.534 96.3215C204.031 97.3569 203.978 98.791 204.375 100.624Z" fill="#FFF8EE"/>
</g>
<defs>
<filter id="filter0_dd" x="89.3987" y="0.0339966" width="191.511" height="179.114" filterUnits="userSpaceOnUse" color-interpolation-filters="sRGB">
<feFlood flood-opacity="0" result="BackgroundImageFix"/>
<feColorMatrix in="SourceAlpha" type="matrix" values="0 0 0 0 0 0 0 0 0 0 0 0 0 0 0 0 0 0 127 0"/>
<feOffset/>
<feGaussianBlur stdDeviation="28.5"/>
<feColorMatrix type="matrix" values="0 0 0 0 0.619608 0 0 0 0 0.94902 0 0 0 0 0.976471 0 0 0 1 0"/>
<feBlend mode="normal" in2="BackgroundImageFix" result="effect1_dropShadow"/>
<feColorMatrix in="SourceAlpha" type="matrix" values="0 0 0 0 0 0 0 0 0 0 0 0 0 0 0 0 0 0 127 0"/>
<feOffset dy="4"/>
<feColorMatrix type="matrix" values="0 0 0 0 0.921569 0 0 0 0 0.611765 0 0 0 0 0 0 0 0 1 0"/>
<feBlend mode="normal" in2="effect1_dropShadow" result="effect2_dropShadow"/>
<feBlend mode="normal" in="SourceGraphic" in2="effect2_dropShadow" result="shape"/>
</filter>
</defs>
</svg>
